solid OpenSCAD_Model
  facet normal -1 0 0
    outer loop
      vertex 0 46.0115 5
      vertex 0 87.5 0
      vertex 0 -11.0115 5
    endloop
  endfacet
  facet normal -1 0 0
    outer loop
      vertex 0 -11.8439 8.91584
      vertex 0 -52.5 10
      vertex 0 -11.8439 10
    endloop
  endfacet
  facet normal -1 0 0
    outer loop
      vertex 0 -52.5 0
      vertex 0 -52.5 10
      vertex 0 -11.0115 5
    endloop
  endfacet
  facet normal -1 0 0
    outer loop
      vertex 0 -52.5 0
      vertex 0 -11.0115 5
      vertex 0 87.5 0
    endloop
  endfacet
  facet normal -1 0 0
    outer loop
      vertex 0 87.5 0
      vertex 0 46.0115 5
      vertex 0 46.7937 8.67989
    endloop
  endfacet
  facet normal -1 0 0
    outer loop
      vertex 0 46.7937 8.67989
      vertex 0 46.8439 8.91584
      vertex 0 87.5 0
    endloop
  endfacet
  facet normal -1 0 0
    outer loop
      vertex 0 46.8439 8.91584
      vertex 0 46.8439 10
      vertex 0 87.5 0
    endloop
  endfacet
  facet normal -1 0 0
    outer loop
      vertex 0 87.5 0
      vertex 0 46.8439 10
      vertex 0 87.5 10
    endloop
  endfacet
  facet normal -1 0 0
    outer loop
      vertex 0 -11.0115 5
      vertex 0 -52.5 10
      vertex 0 -11.8439 8.91584
    endloop
  endfacet
  facet normal 0 -1 0
    outer loop
      vertex 0 -52.5 10
      vertex 0 -52.5 0
      vertex 70 -52.5 0
    endloop
  endfacet
  facet normal 0 -1 0
    outer loop
      vertex 70 -52.5 10
      vertex 0 -52.5 10
      vertex 70 -52.5 0
    endloop
  endfacet
  facet normal 0 0 -1
    outer loop
      vertex 0 -52.5 0
      vertex 0 87.5 0
      vertex 70 -52.5 0
    endloop
  endfacet
  facet normal 0 0 -1
    outer loop
      vertex 70 -52.5 0
      vertex 0 87.5 0
      vertex 70 87.5 0
    endloop
  endfacet
  facet normal 0 1 0
    outer loop
      vertex 0 87.5 0
      vertex 0 87.5 10
      vertex 70 87.5 0
    endloop
  endfacet
  facet normal 0 1 0
    outer loop
      vertex 70 87.5 0
      vertex 0 87.5 10
      vertex 70 87.5 10
    endloop
  endfacet
  facet normal 0 0 1
    outer loop
      vertex 0 87.5 10
      vertex 0 46.8439 10
      vertex 44 42.5161 10
    endloop
  endfacet
  facet normal 0 0 1
    outer loop
      vertex 54 46 10
      vertex 0 87.5 10
      vertex 44 46 10
    endloop
  endfacet
  facet normal 0 0 1
    outer loop
      vertex 44 46 10
      vertex 0 87.5 10
      vertex 44 42.5161 10
    endloop
  endfacet
  facet normal 0 0 1
    outer loop
      vertex 70 39.9587 10
      vertex 0 87.5 10
      vertex 54 46 10
    endloop
  endfacet
  facet normal 0 0 1
    outer loop
      vertex 70 39.9587 10
      vertex 54 46 10
      vertex 54 41.5325 10
    endloop
  endfacet
  facet normal 0 0 1
    outer loop
      vertex 70 87.5 10
      vertex 0 87.5 10
      vertex 70 39.9587 10
    endloop
  endfacet
  facet normal -0.0978869 -0.995198 -2.17353e-17
    outer loop
      vertex 54 41.5325 9.5
      vertex 70 39.9587 9.63949
      vertex 70 39.9587 10
    endloop
  endfacet
  facet normal -0.0978869 -0.995198 -2.17353e-17
    outer loop
      vertex 0 46.8439 8.91584
      vertex 70 39.9587 9.63949
      vertex 54 41.5325 9.5
    endloop
  endfacet
  facet normal -0.0978869 -0.995198 -2.17353e-17
    outer loop
      vertex 44 42.5161 9.5
      vertex 44 42.5161 10
      vertex 0 46.8439 8.91584
    endloop
  endfacet
  facet normal -0.0978869 -0.995198 -2.17353e-17
    outer loop
      vertex 0 46.8439 8.91584
      vertex 54 41.5325 9.5
      vertex 44 42.5161 9.5
    endloop
  endfacet
  facet normal -0.0978869 -0.995198 -2.17353e-17
    outer loop
      vertex 0 46.8439 10
      vertex 0 46.8439 8.91584
      vertex 44 42.5161 10
    endloop
  endfacet
  facet normal -0.0978869 -0.995198 -2.17353e-17
    outer loop
      vertex 54 41.5325 10
      vertex 54 41.5325 9.5
      vertex 70 39.9587 10
    endloop
  endfacet
  facet normal -0.0978869 -0.97345 0.206913
    outer loop
      vertex 70 39.2064 6.10027
      vertex 70 39.9587 9.63949
      vertex 0 46.8439 8.91584
    endloop
  endfacet
  facet normal -0.0978869 -0.97345 0.206913
    outer loop
      vertex 0 46.7937 8.67989
      vertex 70 39.2064 6.10027
      vertex 0 46.8439 8.91584
    endloop
  endfacet
  facet normal -0.0978869 -0.97345 0.206913
    outer loop
      vertex 69.2916 39.0438 5
      vertex 70 38.9772 5.02165
      vertex 70 39.2064 6.10027
    endloop
  endfacet
  facet normal -0.0978869 -0.97345 0.206913
    outer loop
      vertex 0 46.0115 5
      vertex 69.2916 39.0438 5
      vertex 0 46.7937 8.67989
    endloop
  endfacet
  facet normal -0.0978869 -0.97345 0.206913
    outer loop
      vertex 0 46.7937 8.67989
      vertex 69.2916 39.0438 5
      vertex 70 39.2064 6.10027
    endloop
  endfacet
  facet normal 0 0 1
    outer loop
      vertex 0 46.0115 5
      vertex 0 -11.0115 5
      vertex 24.202 -8.57785 5
    endloop
  endfacet
  facet normal 0 0 1
    outer loop
      vertex 16.5 17.0365 5
      vertex 0 46.0115 5
      vertex 24.202 -8.57785 5
    endloop
  endfacet
  facet normal 0 0 1
    outer loop
      vertex 42.75 17.2184 5
      vertex 42.2865 16.8817 5
      vertex 70 -3.96752 5
    endloop
  endfacet
  facet normal 0 0 1
    outer loop
      vertex 37.5 23.9635 5
      vertex 70 38.9675 5
      vertex 0 46.0115 5
    endloop
  endfacet
  facet normal 0 0 1
    outer loop
      vertex 70 38.9675 5
      vertex 69.2916 39.0438 5
      vertex 0 46.0115 5
    endloop
  endfacet
  facet normal 0 0 1
    outer loop
      vertex 18.2188 16.2865 5
      vertex 16.5 17.0365 5
      vertex 24.202 -8.57785 5
    endloop
  endfacet
  facet normal 0 0 1
    outer loop
      vertex 16.5 17.9635 5
      vertex 0 46.0115 5
      vertex 16.5 17.0365 5
    endloop
  endfacet
  facet normal 0 0 1
    outer loop
      vertex 18.2188 18.7135 5
      vertex 0 46.0115 5
      vertex 16.5 17.9635 5
    endloop
  endfacet
  facet normal 0 0 1
    outer loop
      vertex 21 16 5
      vertex 18.2188 16.2865 5
      vertex 69.2916 -4.04378 5
    endloop
  endfacet
  facet normal 0 0 1
    outer loop
      vertex 21 19 5
      vertex 0 46.0115 5
      vertex 18.2188 18.7135 5
    endloop
  endfacet
  facet normal 0 0 1
    outer loop
      vertex 23.7812 18.7135 5
      vertex 0 46.0115 5
      vertex 21 19 5
    endloop
  endfacet
  facet normal 0 0 1
    outer loop
      vertex 25.5 17.9635 5
      vertex 0 46.0115 5
      vertex 23.7812 18.7135 5
    endloop
  endfacet
  facet normal 0 0 1
    outer loop
      vertex 40.5 16.4635 5
      vertex 40.5 15.5365 5
      vertex 40.5 16 5
    endloop
  endfacet
  facet normal 0 0 1
    outer loop
      vertex 25.7865 18.3817 5
      vertex 0 46.0115 5
      vertex 25.5 17.9635 5
    endloop
  endfacet
  facet normal 0 0 1
    outer loop
      vertex 27.75 16.2816 5
      vertex 27.4635 16.0734 5
      vertex 69.2916 -4.04378 5
    endloop
  endfacet
  facet normal 0 0 1
    outer loop
      vertex 69.2916 -4.04378 5
      vertex 18.2188 16.2865 5
      vertex 24.202 -8.57785 5
    endloop
  endfacet
  facet normal 0 0 1
    outer loop
      vertex 26.5365 16.0734 5
      vertex 25.7865 16.6183 5
      vertex 23.7812 16.2865 5
    endloop
  endfacet
  facet normal 0 0 1
    outer loop
      vertex 27.4635 16.0734 5
      vertex 26.5365 16.0734 5
      vertex 69.2916 -4.04378 5
    endloop
  endfacet
  facet normal 0 0 1
    outer loop
      vertex 26.5365 18.9266 5
      vertex 0 46.0115 5
      vertex 25.7865 18.3817 5
    endloop
  endfacet
  facet normal 0 0 1
    outer loop
      vertex 27.4635 18.9266 5
      vertex 0 46.0115 5
      vertex 26.5365 18.9266 5
    endloop
  endfacet
  facet normal 0 0 1
    outer loop
      vertex 33.2188 17.2135 5
      vertex 0 46.0115 5
      vertex 27.4635 18.9266 5
    endloop
  endfacet
  facet normal 0 0 1
    outer loop
      vertex 27.2865 18.3817 5
      vertex 27 17.5 5
      vertex 31.5 15.5365 5
    endloop
  endfacet
  facet normal 0 0 1
    outer loop
      vertex 31.5 15.5365 5
      vertex 31.5 16.4635 5
      vertex 27.2865 18.3817 5
    endloop
  endfacet
  facet normal 0 0 1
    outer loop
      vertex 39.2188 24.7135 5
      vertex 42 25 5
      vertex 70 38.9675 5
    endloop
  endfacet
  facet normal 0 0 1
    outer loop
      vertex 25.5 17.5 5
      vertex 25.7865 18.3817 5
      vertex 25.5 17.9635 5
    endloop
  endfacet
  facet normal 0 0 1
    outer loop
      vertex 69.2916 -4.04378 5
      vertex 27.2865 16.6183 5
      vertex 27.75 16.2816 5
    endloop
  endfacet
  facet normal 0 0 1
    outer loop
      vertex 23.7812 16.2865 5
      vertex 21 16 5
      vertex 69.2916 -4.04378 5
    endloop
  endfacet
  facet normal 0 0 1
    outer loop
      vertex 31.5 16.4635 5
      vertex 33.2188 17.2135 5
      vertex 27.4635 18.9266 5
    endloop
  endfacet
  facet normal 0 0 1
    outer loop
      vertex 69.2916 -4.04378 5
      vertex 26.5365 16.0734 5
      vertex 23.7812 16.2865 5
    endloop
  endfacet
  facet normal 0 0 1
    outer loop
      vertex 27 17.5 5
      vertex 27.2865 16.6183 5
      vertex 69.2916 -4.04378 5
    endloop
  endfacet
  facet normal 0 0 1
    outer loop
      vertex 31.5 16.4635 5
      vertex 27.4635 18.9266 5
      vertex 27.75 18.7184 5
    endloop
  endfacet
  facet normal 0 0 1
    outer loop
      vertex 31.5 15.5365 5
      vertex 27 17.5 5
      vertex 69.2916 -4.04378 5
    endloop
  endfacet
  facet normal 0 0 1
    outer loop
      vertex 36 17.5 5
      vertex 0 46.0115 5
      vertex 33.2188 17.2135 5
    endloop
  endfacet
  facet normal 0 0 1
    outer loop
      vertex 38.7812 17.2135 5
      vertex 0 46.0115 5
      vertex 36 17.5 5
    endloop
  endfacet
  facet normal 0 0 1
    outer loop
      vertex 40.5 16.4635 5
      vertex 0 46.0115 5
      vertex 38.7812 17.2135 5
    endloop
  endfacet
  facet normal 0 0 1
    outer loop
      vertex 40.7865 16.8817 5
      vertex 41.5365 17.4266 5
      vertex 0 46.0115 5
    endloop
  endfacet
  facet normal 0 0 1
    outer loop
      vertex 40.5 16 5
      vertex 40.7865 16.8817 5
      vertex 40.5 16.4635 5
    endloop
  endfacet
  facet normal 0 0 1
    outer loop
      vertex 36 14.5 5
      vertex 33.2188 14.7865 5
      vertex 69.2916 -4.04378 5
    endloop
  endfacet
  facet normal 0 0 1
    outer loop
      vertex 42.4635 14.5734 5
      vertex 41.5365 14.5734 5
      vertex 69.2916 -4.04378 5
    endloop
  endfacet
  facet normal 0 0 1
    outer loop
      vertex 69.2916 -4.04378 5
      vertex 33.2188 14.7865 5
      vertex 31.5 15.5365 5
    endloop
  endfacet
  facet normal 0 0 1
    outer loop
      vertex 41.5365 17.4266 5
      vertex 37.5 23.0365 5
      vertex 0 46.0115 5
    endloop
  endfacet
  facet normal 0 0 1
    outer loop
      vertex 37.5 23.0365 5
      vertex 37.5 23.9635 5
      vertex 0 46.0115 5
    endloop
  endfacet
  facet normal 0 0 1
    outer loop
      vertex 39.2188 24.7135 5
      vertex 70 38.9675 5
      vertex 37.5 23.9635 5
    endloop
  endfacet
  facet normal 0 0 1
    outer loop
      vertex 46.7865 22.6183 5
      vertex 44.7812 22.2865 5
      vertex 70 -3.96752 5
    endloop
  endfacet
  facet normal 0 0 1
    outer loop
      vertex 44.7812 24.7135 5
      vertex 70 38.9675 5
      vertex 42 25 5
    endloop
  endfacet
  facet normal 0 0 1
    outer loop
      vertex 47.5365 24.9266 5
      vertex 70 38.9675 5
      vertex 44.7812 24.7135 5
    endloop
  endfacet
  facet normal 0 0 1
    outer loop
      vertex 47.5365 24.9266 5
      vertex 48.4635 24.9266 5
      vertex 70 38.9675 5
    endloop
  endfacet
  facet normal 0 0 1
    outer loop
      vertex 40.7865 15.1183 5
      vertex 40.5 16 5
      vertex 40.5 15.5365 5
    endloop
  endfacet
  facet normal 0 0 1
    outer loop
      vertex 46.5 23.5 5
      vertex 46.5 23.9635 5
      vertex 46.5 23.0365 5
    endloop
  endfacet
  facet normal 0 0 1
    outer loop
      vertex 47.5365 22.0734 5
      vertex 46.7865 22.6183 5
      vertex 70 -3.96752 5
    endloop
  endfacet
  facet normal 0 0 1
    outer loop
      vertex 70 -3.96752 5
      vertex 39.2188 22.2865 5
      vertex 37.5 23.0365 5
    endloop
  endfacet
  facet normal 0 0 1
    outer loop
      vertex 70 -3.96752 5
      vertex 42 22 5
      vertex 39.2188 22.2865 5
    endloop
  endfacet
  facet normal 0 0 1
    outer loop
      vertex 46.5 23.0365 5
      vertex 44.7812 22.2865 5
      vertex 46.7865 22.6183 5
    endloop
  endfacet
  facet normal 0 0 1
    outer loop
      vertex 40.5 16.4635 5
      vertex 40.7865 16.8817 5
      vertex 0 46.0115 5
    endloop
  endfacet
  facet normal 0 0 1
    outer loop
      vertex 41.5365 14.5734 5
      vertex 38.7812 14.7865 5
      vertex 69.2916 -4.04378 5
    endloop
  endfacet
  facet normal 0 0 1
    outer loop
      vertex 42 16 5
      vertex 42.2865 15.1183 5
      vertex 69.2916 -4.04378 5
    endloop
  endfacet
  facet normal 0 0 1
    outer loop
      vertex 42.4635 17.4266 5
      vertex 37.5 23.0365 5
      vertex 41.5365 17.4266 5
    endloop
  endfacet
  facet normal 0 0 1
    outer loop
      vertex 42.75 17.2184 5
      vertex 37.5 23.0365 5
      vertex 42.4635 17.4266 5
    endloop
  endfacet
  facet normal 0 0 1
    outer loop
      vertex 70 -3.96752 5
      vertex 37.5 23.0365 5
      vertex 42.75 17.2184 5
    endloop
  endfacet
  facet normal 0 0 1
    outer loop
      vertex 42.75 14.7816 5
      vertex 42.4635 14.5734 5
      vertex 69.2916 -4.04378 5
    endloop
  endfacet
  facet normal 0 0 1
    outer loop
      vertex 69.2916 -4.04378 5
      vertex 70 -3.96752 5
      vertex 42 16 5
    endloop
  endfacet
  facet normal 0 0 1
    outer loop
      vertex 40.5 15.5365 5
      vertex 38.7812 14.7865 5
      vertex 40.7865 15.1183 5
    endloop
  endfacet
  facet normal 0 0 1
    outer loop
      vertex 42.2865 16.8817 5
      vertex 42 16 5
      vertex 70 -3.96752 5
    endloop
  endfacet
  facet normal 0 0 1
    outer loop
      vertex 40.7865 15.1183 5
      vertex 38.7812 14.7865 5
      vertex 41.5365 14.5734 5
    endloop
  endfacet
  facet normal 0 0 1
    outer loop
      vertex 69.2916 -4.04378 5
      vertex 42.2865 15.1183 5
      vertex 42.75 14.7816 5
    endloop
  endfacet
  facet normal 0 0 1
    outer loop
      vertex 38.7812 14.7865 5
      vertex 36 14.5 5
      vertex 69.2916 -4.04378 5
    endloop
  endfacet
  facet normal 0 0 1
    outer loop
      vertex 44.7812 22.2865 5
      vertex 42 22 5
      vertex 70 -3.96752 5
    endloop
  endfacet
  facet normal 0 0 1
    outer loop
      vertex 46.5 23.9635 5
      vertex 46.7865 24.3817 5
      vertex 44.7812 24.7135 5
    endloop
  endfacet
  facet normal 0 0 1
    outer loop
      vertex 46.7865 24.3817 5
      vertex 47.5365 24.9266 5
      vertex 44.7812 24.7135 5
    endloop
  endfacet
  facet normal 0 0 1
    outer loop
      vertex 48.75 24.7184 5
      vertex 48.2865 24.3817 5
      vertex 70 -3.96752 5
    endloop
  endfacet
  facet normal 0 0 1
    outer loop
      vertex 48.75 24.7184 5
      vertex 70 38.9675 5
      vertex 48.4635 24.9266 5
    endloop
  endfacet
  facet normal 0 0 1
    outer loop
      vertex 48.75 22.2816 5
      vertex 48.4635 22.0734 5
      vertex 70 -3.96752 5
    endloop
  endfacet
  facet normal 0 0 1
    outer loop
      vertex 70 -3.96752 5
      vertex 70 38.9675 5
      vertex 48.75 24.7184 5
    endloop
  endfacet
  facet normal 0 0 1
    outer loop
      vertex 70 -3.96752 5
      vertex 48.2865 24.3817 5
      vertex 48 23.5 5
    endloop
  endfacet
  facet normal 0 0 1
    outer loop
      vertex 48.75 22.2816 5
      vertex 48 23.5 5
      vertex 48.2865 22.6183 5
    endloop
  endfacet
  facet normal 0 0 1
    outer loop
      vertex 48.4635 22.0734 5
      vertex 47.5365 22.0734 5
      vertex 70 -3.96752 5
    endloop
  endfacet
  facet normal 0 0 1
    outer loop
      vertex 70 -3.96752 5
      vertex 48 23.5 5
      vertex 48.75 22.2816 5
    endloop
  endfacet
  facet normal 0 0 1
    outer loop
      vertex 46.7865 22.6183 5
      vertex 46.5 23.5 5
      vertex 46.5 23.0365 5
    endloop
  endfacet
  facet normal 0 0 1
    outer loop
      vertex 27.75 18.7184 5
      vertex 27.2865 18.3817 5
      vertex 31.5 16.4635 5
    endloop
  endfacet
  facet normal 0 0 1
    outer loop
      vertex 25.5 17.9635 5
      vertex 25.5 17.0365 5
      vertex 25.5 17.5 5
    endloop
  endfacet
  facet normal 0 0 1
    outer loop
      vertex 25.5 17.0365 5
      vertex 23.7812 16.2865 5
      vertex 25.7865 16.6183 5
    endloop
  endfacet
  facet normal 0 0 1
    outer loop
      vertex 25.7865 16.6183 5
      vertex 25.5 17.5 5
      vertex 25.5 17.0365 5
    endloop
  endfacet
  facet normal 0 0 1
    outer loop
      vertex 46.5 23.5 5
      vertex 46.7865 24.3817 5
      vertex 46.5 23.9635 5
    endloop
  endfacet
  facet normal -0.0978869 0.97345 0.206913
    outer loop
      vertex 70 -4.72944 8.56087
      vertex 24.202 -8.57785 5
      vertex 70 -4.95871 9.63949
    endloop
  endfacet
  facet normal -0.0978869 0.97345 0.206913
    outer loop
      vertex 70 -4.95871 9.63949
      vertex 24.202 -8.57785 5
      vertex 0 -11.0115 5
    endloop
  endfacet
  facet normal -0.0978869 0.97345 0.206913
    outer loop
      vertex 70 -4.95871 9.63949
      vertex 0 -11.0115 5
      vertex 0 -11.8439 8.91584
    endloop
  endfacet
  facet normal -0.0978869 0.995198 -2.17353e-17
    outer loop
      vertex 44 -7.51605 10
      vertex 44 -7.51605 9.5
      vertex 0 -11.8439 10
    endloop
  endfacet
  facet normal -0.0978869 0.995198 -2.17353e-17
    outer loop
      vertex 0 -11.8439 8.91584
      vertex 44 -7.51605 9.5
      vertex 54 -6.53246 9.5
    endloop
  endfacet
  facet normal -0.0978869 0.995198 -2.17353e-17
    outer loop
      vertex 70 -4.95871 10
      vertex 54 -6.53246 9.5
      vertex 54 -6.53246 10
    endloop
  endfacet
  facet normal -0.0978869 0.995198 -2.17353e-17
    outer loop
      vertex 70 -4.95871 9.63949
      vertex 54 -6.53246 9.5
      vertex 70 -4.95871 10
    endloop
  endfacet
  facet normal -0.0978869 0.995198 -2.17353e-17
    outer loop
      vertex 0 -11.8439 8.91584
      vertex 54 -6.53246 9.5
      vertex 70 -4.95871 9.63949
    endloop
  endfacet
  facet normal -0.0978869 0.995198 -2.17353e-17
    outer loop
      vertex 0 -11.8439 10
      vertex 44 -7.51605 9.5
      vertex 0 -11.8439 8.91584
    endloop
  endfacet
  facet normal 0 0 1
    outer loop
      vertex 0 -11.8439 10
      vertex 0 -52.5 10
      vertex 70 -52.5 10
    endloop
  endfacet
  facet normal 0 0 1
    outer loop
      vertex 44 -14 10
      vertex 0 -11.8439 10
      vertex 70 -52.5 10
    endloop
  endfacet
  facet normal 0 0 1
    outer loop
      vertex 70 -4.95871 10
      vertex 54 -6.53246 10
      vertex 70 -52.5 10
    endloop
  endfacet
  facet normal 0 0 1
    outer loop
      vertex 54 -6.53246 10
      vertex 54 -14 10
      vertex 70 -52.5 10
    endloop
  endfacet
  facet normal 0 0 1
    outer loop
      vertex 54 -14 10
      vertex 44 -14 10
      vertex 70 -52.5 10
    endloop
  endfacet
  facet normal 0 0 1
    outer loop
      vertex 44 -14 10
      vertex 44 -7.51605 10
      vertex 0 -11.8439 10
    endloop
  endfacet
  facet normal 1 0 0
    outer loop
      vertex 70 -3.96752 5
      vertex 70 -52.5 0
      vertex 70 87.5 0
    endloop
  endfacet
  facet normal 1 0 0
    outer loop
      vertex 70 87.5 10
      vertex 70 39.9587 10
      vertex 70 87.5 0
    endloop
  endfacet
  facet normal 1 0 0
    outer loop
      vertex 70 39.9587 10
      vertex 70 39.9587 9.63949
      vertex 70 87.5 0
    endloop
  endfacet
  facet normal 1 0 0
    outer loop
      vertex 70 39.9587 9.63949
      vertex 70 39.2064 6.10027
      vertex 70 87.5 0
    endloop
  endfacet
  facet normal 1 0 0
    outer loop
      vertex 70 39.2064 6.10027
      vertex 70 38.9772 5.02165
      vertex 70 87.5 0
    endloop
  endfacet
  facet normal 1 0 0
    outer loop
      vertex 70 -4.95871 9.63949
      vertex 70 -4.95871 10
      vertex 70 -52.5 10
    endloop
  endfacet
  facet normal 1 0 0
    outer loop
      vertex 70 38.9772 5.02165
      vertex 70 38.9675 5
      vertex 70 87.5 0
    endloop
  endfacet
  facet normal 1 0 0
    outer loop
      vertex 70 -52.5 10
      vertex 70 -52.5 0
      vertex 70 -3.96752 5
    endloop
  endfacet
  facet normal 1 0 0
    outer loop
      vertex 70 -52.5 10
      vertex 70 -3.96752 5
      vertex 70 -3.97716 5.02165
    endloop
  endfacet
  facet normal 1 0 0
    outer loop
      vertex 70 -4.95871 9.63949
      vertex 70 -52.5 10
      vertex 70 -4.72944 8.56087
    endloop
  endfacet
  facet normal 1 0 0
    outer loop
      vertex 70 38.9675 5
      vertex 70 -3.96752 5
      vertex 70 87.5 0
    endloop
  endfacet
  facet normal 1 0 0
    outer loop
      vertex 70 -3.97716 5.02165
      vertex 70 -4.72944 8.56087
      vertex 70 -52.5 10
    endloop
  endfacet
  facet normal 1 0 0
    outer loop
      vertex 54 41.5325 10
      vertex 54 46 10
      vertex 54 -14 10.5
    endloop
  endfacet
  facet normal 1 0 0
    outer loop
      vertex 54 -14 10.5
      vertex 54 -14 10
      vertex 54 -6.53246 10
    endloop
  endfacet
  facet normal 1 0 0
    outer loop
      vertex 54 41.5325 9.5
      vertex 54 -14 10.5
      vertex 54 -6.53246 10
    endloop
  endfacet
  facet normal 1 0 0
    outer loop
      vertex 54 -6.53246 9.5
      vertex 54 41.5325 9.5
      vertex 54 -6.53246 10
    endloop
  endfacet
  facet normal 1 0 0
    outer loop
      vertex 54 41.5325 9.5
      vertex 54 41.5325 10
      vertex 54 -14 10.5
    endloop
  endfacet
  facet normal 1 0 0
    outer loop
      vertex 54 46 10
      vertex 54 46 10.5
      vertex 54 -14 10.5
    endloop
  endfacet
  facet normal 0 1 -2.22045e-16
    outer loop
      vertex 44 46 10
      vertex 44 46 10.5
      vertex 54 46 10
    endloop
  endfacet
  facet normal 0 1 -2.22045e-16
    outer loop
      vertex 54 46 10
      vertex 44 46 10.5
      vertex 54 46 10.5
    endloop
  endfacet
  facet normal -1 0 0
    outer loop
      vertex 44 -14 10
      vertex 44 -14 10.5
      vertex 44 -7.51605 10
    endloop
  endfacet
  facet normal -1 0 0
    outer loop
      vertex 44 -7.51605 10
      vertex 44 -14 10.5
      vertex 44 46 10.5
    endloop
  endfacet
  facet normal -1 0 0
    outer loop
      vertex 44 42.5161 10
      vertex 44 46 10.5
      vertex 44 46 10
    endloop
  endfacet
  facet normal -1 0 0
    outer loop
      vertex 44 -7.51605 10
      vertex 44 46 10.5
      vertex 44 42.5161 10
    endloop
  endfacet
  facet normal -1 0 0
    outer loop
      vertex 44 42.5161 10
      vertex 44 42.5161 9.5
      vertex 44 -7.51605 10
    endloop
  endfacet
  facet normal -1 0 0
    outer loop
      vertex 44 -7.51605 10
      vertex 44 42.5161 9.5
      vertex 44 -7.51605 9.5
    endloop
  endfacet
  facet normal 0 -2.22045e-16 -1
    outer loop
      vertex 44 -7.51605 9.5
      vertex 44 42.5161 9.5
      vertex 54 -6.53246 9.5
    endloop
  endfacet
  facet normal 0 -2.22045e-16 -1
    outer loop
      vertex 54 -6.53246 9.5
      vertex 44 42.5161 9.5
      vertex 54 41.5325 9.5
    endloop
  endfacet
  facet normal -0.0978869 -0.909158 0.404783
    outer loop
      vertex 70 38.9675 5
      vertex 70 38.9772 5.02165
      vertex 69.2916 39.0438 5
    endloop
  endfacet
  facet normal -0.0978869 0.909158 0.404783
    outer loop
      vertex 70 -3.97716 5.02165
      vertex 70 -3.96752 5
      vertex 69.2916 -4.04378 5
    endloop
  endfacet
  facet normal -0.0978869 0.97345 0.206913
    outer loop
      vertex 70 -3.97716 5.02165
      vertex 69.2916 -4.04378 5
      vertex 70 -4.72944 8.56087
    endloop
  endfacet
  facet normal -0.0978869 0.97345 0.206913
    outer loop
      vertex 70 -4.72944 8.56087
      vertex 69.2916 -4.04378 5
      vertex 24.202 -8.57785 5
    endloop
  endfacet
  facet normal -1 0 -2.22045e-16
    outer loop
      vertex 16.5 17.5 5.46353
      vertex 16.5 17.7865 5.375
      vertex 16.5 17.2135 5.375
    endloop
  endfacet
  facet normal -1 0 -2.22045e-16
    outer loop
      vertex 16.5 17.2135 5.375
      vertex 16.5 17.7865 5.375
      vertex 16.5 17.9635 5.14324
    endloop
  endfacet
  facet normal -1 0 -2.22045e-16
    outer loop
      vertex 16.5 17.2135 5.375
      vertex 16.5 17.9635 5.14324
      vertex 16.5 17.9635 5
    endloop
  endfacet
  facet normal -1 0 -2.22045e-16
    outer loop
      vertex 16.5 17.2135 5.375
      vertex 16.5 17.9635 5
      vertex 16.5 17.0365 5
    endloop
  endfacet
  facet normal -1 0 -2.22045e-16
    outer loop
      vertex 16.5 17.2135 5.375
      vertex 16.5 17.0365 5
      vertex 16.5 17.0365 5.14324
    endloop
  endfacet
  facet normal -0.399925 -0.916548 -8.88013e-17
    outer loop
      vertex 18.2188 16.2865 5.375
      vertex 16.5 17.0365 5.14324
      vertex 16.5 17.0365 5
    endloop
  endfacet
  facet normal -0.399925 -0.916548 -8.88013e-17
    outer loop
      vertex 18.2188 16.2865 5
      vertex 18.2188 16.2865 5.375
      vertex 16.5 17.0365 5
    endloop
  endfacet
  facet normal -0.102464 -0.994737 -2.27515e-17
    outer loop
      vertex 21 16 5.46353
      vertex 18.2188 16.2865 5.375
      vertex 18.2188 16.2865 5
    endloop
  endfacet
  facet normal -0.102464 -0.994737 -2.27515e-17
    outer loop
      vertex 21 16 5
      vertex 21 16 5.46353
      vertex 18.2188 16.2865 5
    endloop
  endfacet
  facet normal 0.102464 -0.994737 2.27515e-17
    outer loop
      vertex 23.7812 16.2865 5.375
      vertex 21 16 5.46353
      vertex 21 16 5
    endloop
  endfacet
  facet normal 0.102464 -0.994737 2.27515e-17
    outer loop
      vertex 23.7812 16.2865 5
      vertex 23.7812 16.2865 5.375
      vertex 21 16 5
    endloop
  endfacet
  facet normal 0.399925 -0.916548 8.88013e-17
    outer loop
      vertex 25.5 17.0365 5.14324
      vertex 23.7812 16.2865 5.375
      vertex 23.7812 16.2865 5
    endloop
  endfacet
  facet normal 0.399925 -0.916548 8.88013e-17
    outer loop
      vertex 25.5 17.0365 5
      vertex 25.5 17.0365 5.14324
      vertex 23.7812 16.2865 5
    endloop
  endfacet
  facet normal 1 0 2.22045e-16
    outer loop
      vertex 25.5 17.7865 5.375
      vertex 25.5 17.5 5.46353
      vertex 25.5 17.2135 5.375
    endloop
  endfacet
  facet normal 1 0 2.22045e-16
    outer loop
      vertex 25.5 17.0365 5
      vertex 25.5 17.7865 5.375
      vertex 25.5 17.0365 5.14324
    endloop
  endfacet
  facet normal 1 0 2.22045e-16
    outer loop
      vertex 25.5 17.0365 5.14324
      vertex 25.5 17.7865 5.375
      vertex 25.5 17.2135 5.375
    endloop
  endfacet
  facet normal 1 0 2.22045e-16
    outer loop
      vertex 25.5 17.9635 5
      vertex 25.5 17.7865 5.375
      vertex 25.5 17.0365 5
    endloop
  endfacet
  facet normal 1 0 2.22045e-16
    outer loop
      vertex 25.5 17.9635 5.14324
      vertex 25.5 17.7865 5.375
      vertex 25.5 17.9635 5
    endloop
  endfacet
  facet normal 0.399925 0.916548 8.88013e-17
    outer loop
      vertex 23.7812 18.7135 5.375
      vertex 25.5 17.9635 5.14324
      vertex 23.7812 18.7135 5
    endloop
  endfacet
  facet normal 0.399925 0.916548 8.88013e-17
    outer loop
      vertex 23.7812 18.7135 5
      vertex 25.5 17.9635 5.14324
      vertex 25.5 17.9635 5
    endloop
  endfacet
  facet normal 0.102464 0.994737 2.27515e-17
    outer loop
      vertex 21 19 5.46353
      vertex 23.7812 18.7135 5.375
      vertex 21 19 5
    endloop
  endfacet
  facet normal 0.102464 0.994737 2.27515e-17
    outer loop
      vertex 21 19 5
      vertex 23.7812 18.7135 5.375
      vertex 23.7812 18.7135 5
    endloop
  endfacet
  facet normal -0.102464 0.994737 -2.27515e-17
    outer loop
      vertex 18.2188 18.7135 5.375
      vertex 21 19 5.46353
      vertex 18.2188 18.7135 5
    endloop
  endfacet
  facet normal -0.102464 0.994737 -2.27515e-17
    outer loop
      vertex 18.2188 18.7135 5
      vertex 21 19 5.46353
      vertex 21 19 5
    endloop
  endfacet
  facet normal -0.399925 0.916548 -8.88013e-17
    outer loop
      vertex 16.5 17.9635 5.14324
      vertex 18.2188 18.7135 5.375
      vertex 16.5 17.9635 5
    endloop
  endfacet
  facet normal -0.399925 0.916548 -8.88013e-17
    outer loop
      vertex 16.5 17.9635 5
      vertex 18.2188 18.7135 5.375
      vertex 18.2188 18.7135 5
    endloop
  endfacet
  facet normal -0.908661 -0.295242 0.295242
    outer loop
      vertex 25.7865 17.5 5.88168
      vertex 25.5 17.5 5
      vertex 25.7865 16.6183 5
    endloop
  endfacet
  facet normal -0.908661 -0.295241 0.295241
    outer loop
      vertex 25.7865 17.5 5.88168
      vertex 25.7865 16.6183 5
      vertex 26.0182 16.7867 5.88168
    endloop
  endfacet
  facet normal -0.561583 -0.772953 0.295242
    outer loop
      vertex 26.0182 16.7867 5.88168
      vertex 25.7865 16.6183 5
      vertex 26.5365 16.0734 5
    endloop
  endfacet
  facet normal -0.561583 -0.772953 0.295242
    outer loop
      vertex 26.625 16.3459 5.88168
      vertex 26.0182 16.7867 5.88168
      vertex 26.5365 16.0734 5
    endloop
  endfacet
  facet normal 0 -0.955422 0.295242
    outer loop
      vertex 26.625 16.3459 5.88168
      vertex 26.5365 16.0734 5
      vertex 27.4635 16.0734 5
    endloop
  endfacet
  facet normal 0 -0.955422 0.295242
    outer loop
      vertex 27.375 16.3459 5.88168
      vertex 26.625 16.3459 5.88168
      vertex 27.4635 16.0734 5
    endloop
  endfacet
  facet normal 0.561583 -0.772953 0.295242
    outer loop
      vertex 27.75 16.4677 5.48738
      vertex 27.375 16.3459 5.88168
      vertex 27.4635 16.0734 5
    endloop
  endfacet
  facet normal 0.561583 -0.772953 0.295242
    outer loop
      vertex 27.75 16.2816 5
      vertex 27.75 16.4677 5.48738
      vertex 27.4635 16.0734 5
    endloop
  endfacet
  facet normal 0.561583 0.772953 -0.295242
    outer loop
      vertex 27.5182 16.7867 5.88168
      vertex 27.75 16.4677 5.48738
      vertex 27.75 16.2816 5
    endloop
  endfacet
  facet normal 0.561583 0.772953 -0.295242
    outer loop
      vertex 27.5182 16.7867 5.88168
      vertex 27.75 16.2816 5
      vertex 27.2865 16.6183 5
    endloop
  endfacet
  facet normal 0.908661 0.295241 -0.295241
    outer loop
      vertex 27.2865 17.5 5.88168
      vertex 27.5182 16.7867 5.88168
      vertex 27.2865 16.6183 5
    endloop
  endfacet
  facet normal 0.908661 0.295242 -0.295242
    outer loop
      vertex 27.2865 17.5 5.88168
      vertex 27.2865 16.6183 5
      vertex 27 17.5 5
    endloop
  endfacet
  facet normal 0.908661 -0.295241 -0.295242
    outer loop
      vertex 27.5182 18.2133 5.88168
      vertex 27.2865 17.5 5.88168
      vertex 27 17.5 5
    endloop
  endfacet
  facet normal 0.908661 -0.295242 -0.295241
    outer loop
      vertex 27.2865 18.3817 5
      vertex 27.5182 18.2133 5.88168
      vertex 27 17.5 5
    endloop
  endfacet
  facet normal 0.561583 -0.772953 -0.295242
    outer loop
      vertex 27.2865 18.3817 5
      vertex 27.75 18.5323 5.48738
      vertex 27.5182 18.2133 5.88168
    endloop
  endfacet
  facet normal 0.561583 -0.772953 -0.295242
    outer loop
      vertex 27.5182 18.2133 5.88168
      vertex 27.75 18.5323 5.48738
      vertex 27.75 18.3817 5.88168
    endloop
  endfacet
  facet normal 0.561583 -0.772953 -0.295242
    outer loop
      vertex 27.75 18.7184 5
      vertex 27.75 18.5323 5.48738
      vertex 27.2865 18.3817 5
    endloop
  endfacet
  facet normal 0.561583 0.772953 0.295242
    outer loop
      vertex 27.4635 18.9266 5
      vertex 27.75 18.5323 5.48738
      vertex 27.75 18.7184 5
    endloop
  endfacet
  facet normal 0.561583 0.772953 0.295242
    outer loop
      vertex 27.375 18.6541 5.88168
      vertex 27.75 18.3817 5.88168
      vertex 27.4635 18.9266 5
    endloop
  endfacet
  facet normal 0.561583 0.772953 0.295242
    outer loop
      vertex 27.4635 18.9266 5
      vertex 27.75 18.3817 5.88168
      vertex 27.75 18.5323 5.48738
    endloop
  endfacet
  facet normal 0 0.955422 0.295242
    outer loop
      vertex 26.5365 18.9266 5
      vertex 26.625 18.6541 5.88168
      vertex 27.4635 18.9266 5
    endloop
  endfacet
  facet normal 0 0.955422 0.295242
    outer loop
      vertex 27.4635 18.9266 5
      vertex 26.625 18.6541 5.88168
      vertex 27.375 18.6541 5.88168
    endloop
  endfacet
  facet normal -0.561583 0.772953 0.295242
    outer loop
      vertex 26.5365 18.9266 5
      vertex 25.7865 18.3817 5
      vertex 26.625 18.6541 5.88168
    endloop
  endfacet
  facet normal -0.561583 0.772953 0.295242
    outer loop
      vertex 26.625 18.6541 5.88168
      vertex 25.7865 18.3817 5
      vertex 26.0182 18.2133 5.88168
    endloop
  endfacet
  facet normal -0.908661 0.295242 0.295241
    outer loop
      vertex 25.7865 18.3817 5
      vertex 25.5 17.5 5
      vertex 26.0182 18.2133 5.88168
    endloop
  endfacet
  facet normal -0.908661 0.295241 0.295242
    outer loop
      vertex 26.0182 18.2133 5.88168
      vertex 25.5 17.5 5
      vertex 25.7865 17.5 5.88168
    endloop
  endfacet
  facet normal -1 0 -2.22045e-16
    outer loop
      vertex 31.5 16 5.46353
      vertex 31.5 16.2865 5.375
      vertex 31.5 15.7135 5.375
    endloop
  endfacet
  facet normal -1 0 -2.22045e-16
    outer loop
      vertex 31.5 15.7135 5.375
      vertex 31.5 16.2865 5.375
      vertex 31.5 16.4635 5.14324
    endloop
  endfacet
  facet normal -1 0 -2.22045e-16
    outer loop
      vertex 31.5 15.7135 5.375
      vertex 31.5 16.4635 5.14324
      vertex 31.5 16.4635 5
    endloop
  endfacet
  facet normal -1 0 -2.22045e-16
    outer loop
      vertex 31.5 15.7135 5.375
      vertex 31.5 16.4635 5
      vertex 31.5 15.5365 5
    endloop
  endfacet
  facet normal -1 0 -2.22045e-16
    outer loop
      vertex 31.5 15.7135 5.375
      vertex 31.5 15.5365 5
      vertex 31.5 15.5365 5.14324
    endloop
  endfacet
  facet normal -0.399925 -0.916548 -8.88013e-17
    outer loop
      vertex 33.2188 14.7865 5.375
      vertex 31.5 15.5365 5.14324
      vertex 31.5 15.5365 5
    endloop
  endfacet
  facet normal -0.399925 -0.916548 -8.88013e-17
    outer loop
      vertex 33.2188 14.7865 5
      vertex 33.2188 14.7865 5.375
      vertex 31.5 15.5365 5
    endloop
  endfacet
  facet normal -0.102464 -0.994737 -2.27515e-17
    outer loop
      vertex 36 14.5 5.46353
      vertex 33.2188 14.7865 5.375
      vertex 33.2188 14.7865 5
    endloop
  endfacet
  facet normal -0.102464 -0.994737 -2.27515e-17
    outer loop
      vertex 36 14.5 5
      vertex 36 14.5 5.46353
      vertex 33.2188 14.7865 5
    endloop
  endfacet
  facet normal 0.102464 -0.994737 2.27515e-17
    outer loop
      vertex 38.7812 14.7865 5.375
      vertex 36 14.5 5.46353
      vertex 36 14.5 5
    endloop
  endfacet
  facet normal 0.102464 -0.994737 2.27515e-17
    outer loop
      vertex 38.7812 14.7865 5
      vertex 38.7812 14.7865 5.375
      vertex 36 14.5 5
    endloop
  endfacet
  facet normal 0.399925 -0.916548 8.88013e-17
    outer loop
      vertex 40.5 15.5365 5.14324
      vertex 38.7812 14.7865 5.375
      vertex 38.7812 14.7865 5
    endloop
  endfacet
  facet normal 0.399925 -0.916548 8.88013e-17
    outer loop
      vertex 40.5 15.5365 5
      vertex 40.5 15.5365 5.14324
      vertex 38.7812 14.7865 5
    endloop
  endfacet
  facet normal 1 0 2.22045e-16
    outer loop
      vertex 40.5 16.2865 5.375
      vertex 40.5 16 5.46353
      vertex 40.5 15.7135 5.375
    endloop
  endfacet
  facet normal 1 0 2.22045e-16
    outer loop
      vertex 40.5 15.5365 5
      vertex 40.5 16.2865 5.375
      vertex 40.5 15.5365 5.14324
    endloop
  endfacet
  facet normal 1 0 2.22045e-16
    outer loop
      vertex 40.5 15.5365 5.14324
      vertex 40.5 16.2865 5.375
      vertex 40.5 15.7135 5.375
    endloop
  endfacet
  facet normal 1 0 2.22045e-16
    outer loop
      vertex 40.5 16.4635 5
      vertex 40.5 16.2865 5.375
      vertex 40.5 15.5365 5
    endloop
  endfacet
  facet normal 1 0 2.22045e-16
    outer loop
      vertex 40.5 16.4635 5.14324
      vertex 40.5 16.2865 5.375
      vertex 40.5 16.4635 5
    endloop
  endfacet
  facet normal 0.399925 0.916548 8.88013e-17
    outer loop
      vertex 38.7812 17.2135 5.375
      vertex 40.5 16.4635 5.14324
      vertex 38.7812 17.2135 5
    endloop
  endfacet
  facet normal 0.399925 0.916548 8.88013e-17
    outer loop
      vertex 38.7812 17.2135 5
      vertex 40.5 16.4635 5.14324
      vertex 40.5 16.4635 5
    endloop
  endfacet
  facet normal 0.102464 0.994737 2.27515e-17
    outer loop
      vertex 36 17.5 5.46353
      vertex 38.7812 17.2135 5.375
      vertex 36 17.5 5
    endloop
  endfacet
  facet normal 0.102464 0.994737 2.27515e-17
    outer loop
      vertex 36 17.5 5
      vertex 38.7812 17.2135 5.375
      vertex 38.7812 17.2135 5
    endloop
  endfacet
  facet normal -0.102464 0.994737 -2.27515e-17
    outer loop
      vertex 33.2188 17.2135 5.375
      vertex 36 17.5 5.46353
      vertex 33.2188 17.2135 5
    endloop
  endfacet
  facet normal -0.102464 0.994737 -2.27515e-17
    outer loop
      vertex 33.2188 17.2135 5
      vertex 36 17.5 5.46353
      vertex 36 17.5 5
    endloop
  endfacet
  facet normal -0.399925 0.916548 -8.88013e-17
    outer loop
      vertex 31.5 16.4635 5.14324
      vertex 33.2188 17.2135 5.375
      vertex 31.5 16.4635 5
    endloop
  endfacet
  facet normal -0.399925 0.916548 -8.88013e-17
    outer loop
      vertex 31.5 16.4635 5
      vertex 33.2188 17.2135 5.375
      vertex 33.2188 17.2135 5
    endloop
  endfacet
  facet normal -1 0 -2.22045e-16
    outer loop
      vertex 37.5 23.5 5.46353
      vertex 37.5 23.7865 5.375
      vertex 37.5 23.2135 5.375
    endloop
  endfacet
  facet normal -1 0 -2.22045e-16
    outer loop
      vertex 37.5 23.2135 5.375
      vertex 37.5 23.7865 5.375
      vertex 37.5 23.9635 5.14324
    endloop
  endfacet
  facet normal -1 0 -2.22045e-16
    outer loop
      vertex 37.5 23.2135 5.375
      vertex 37.5 23.9635 5.14324
      vertex 37.5 23.9635 5
    endloop
  endfacet
  facet normal -1 0 -2.22045e-16
    outer loop
      vertex 37.5 23.2135 5.375
      vertex 37.5 23.9635 5
      vertex 37.5 23.0365 5
    endloop
  endfacet
  facet normal -1 0 -2.22045e-16
    outer loop
      vertex 37.5 23.2135 5.375
      vertex 37.5 23.0365 5
      vertex 37.5 23.0365 5.14324
    endloop
  endfacet
  facet normal -0.399925 -0.916548 -8.88013e-17
    outer loop
      vertex 39.2188 22.2865 5.375
      vertex 37.5 23.0365 5.14324
      vertex 37.5 23.0365 5
    endloop
  endfacet
  facet normal -0.399925 -0.916548 -8.88013e-17
    outer loop
      vertex 39.2188 22.2865 5
      vertex 39.2188 22.2865 5.375
      vertex 37.5 23.0365 5
    endloop
  endfacet
  facet normal -0.102464 -0.994737 -2.27515e-17
    outer loop
      vertex 42 22 5.46353
      vertex 39.2188 22.2865 5.375
      vertex 39.2188 22.2865 5
    endloop
  endfacet
  facet normal -0.102464 -0.994737 -2.27515e-17
    outer loop
      vertex 42 22 5
      vertex 42 22 5.46353
      vertex 39.2188 22.2865 5
    endloop
  endfacet
  facet normal 0.102464 -0.994737 2.27515e-17
    outer loop
      vertex 44.7812 22.2865 5.375
      vertex 42 22 5.46353
      vertex 42 22 5
    endloop
  endfacet
  facet normal 0.102464 -0.994737 2.27515e-17
    outer loop
      vertex 44.7812 22.2865 5
      vertex 44.7812 22.2865 5.375
      vertex 42 22 5
    endloop
  endfacet
  facet normal 0.399925 -0.916548 8.88013e-17
    outer loop
      vertex 46.5 23.0365 5.14324
      vertex 44.7812 22.2865 5.375
      vertex 44.7812 22.2865 5
    endloop
  endfacet
  facet normal 0.399925 -0.916548 8.88013e-17
    outer loop
      vertex 46.5 23.0365 5
      vertex 46.5 23.0365 5.14324
      vertex 44.7812 22.2865 5
    endloop
  endfacet
  facet normal 1 0 2.22045e-16
    outer loop
      vertex 46.5 23.7865 5.375
      vertex 46.5 23.5 5.46353
      vertex 46.5 23.2135 5.375
    endloop
  endfacet
  facet normal 1 0 2.22045e-16
    outer loop
      vertex 46.5 23.0365 5
      vertex 46.5 23.7865 5.375
      vertex 46.5 23.0365 5.14324
    endloop
  endfacet
  facet normal 1 0 2.22045e-16
    outer loop
      vertex 46.5 23.0365 5.14324
      vertex 46.5 23.7865 5.375
      vertex 46.5 23.2135 5.375
    endloop
  endfacet
  facet normal 1 0 2.22045e-16
    outer loop
      vertex 46.5 23.9635 5
      vertex 46.5 23.7865 5.375
      vertex 46.5 23.0365 5
    endloop
  endfacet
  facet normal 1 0 2.22045e-16
    outer loop
      vertex 46.5 23.9635 5.14324
      vertex 46.5 23.7865 5.375
      vertex 46.5 23.9635 5
    endloop
  endfacet
  facet normal 0.399925 0.916548 8.88013e-17
    outer loop
      vertex 44.7812 24.7135 5.375
      vertex 46.5 23.9635 5.14324
      vertex 44.7812 24.7135 5
    endloop
  endfacet
  facet normal 0.399925 0.916548 8.88013e-17
    outer loop
      vertex 44.7812 24.7135 5
      vertex 46.5 23.9635 5.14324
      vertex 46.5 23.9635 5
    endloop
  endfacet
  facet normal 0.102464 0.994737 2.27515e-17
    outer loop
      vertex 42 25 5.46353
      vertex 44.7812 24.7135 5.375
      vertex 42 25 5
    endloop
  endfacet
  facet normal 0.102464 0.994737 2.27515e-17
    outer loop
      vertex 42 25 5
      vertex 44.7812 24.7135 5.375
      vertex 44.7812 24.7135 5
    endloop
  endfacet
  facet normal -0.102464 0.994737 -2.27515e-17
    outer loop
      vertex 39.2188 24.7135 5.375
      vertex 42 25 5.46353
      vertex 39.2188 24.7135 5
    endloop
  endfacet
  facet normal -0.102464 0.994737 -2.27515e-17
    outer loop
      vertex 39.2188 24.7135 5
      vertex 42 25 5.46353
      vertex 42 25 5
    endloop
  endfacet
  facet normal -0.399925 0.916548 -8.88013e-17
    outer loop
      vertex 37.5 23.9635 5.14324
      vertex 39.2188 24.7135 5.375
      vertex 37.5 23.9635 5
    endloop
  endfacet
  facet normal -0.399925 0.916548 -8.88013e-17
    outer loop
      vertex 37.5 23.9635 5
      vertex 39.2188 24.7135 5.375
      vertex 39.2188 24.7135 5
    endloop
  endfacet
  facet normal -0.908661 -0.295242 0.295242
    outer loop
      vertex 40.7865 16 5.88168
      vertex 40.5 16 5
      vertex 40.7865 15.1183 5
    endloop
  endfacet
  facet normal -0.908661 -0.295241 0.295241
    outer loop
      vertex 40.7865 16 5.88168
      vertex 40.7865 15.1183 5
      vertex 41.0182 15.2867 5.88168
    endloop
  endfacet
  facet normal -0.561583 -0.772953 0.295242
    outer loop
      vertex 41.0182 15.2867 5.88168
      vertex 40.7865 15.1183 5
      vertex 41.5365 14.5734 5
    endloop
  endfacet
  facet normal -0.561583 -0.772953 0.295242
    outer loop
      vertex 41.625 14.8459 5.88168
      vertex 41.0182 15.2867 5.88168
      vertex 41.5365 14.5734 5
    endloop
  endfacet
  facet normal 0 -0.955422 0.295242
    outer loop
      vertex 41.625 14.8459 5.88168
      vertex 41.5365 14.5734 5
      vertex 42.4635 14.5734 5
    endloop
  endfacet
  facet normal 0 -0.955422 0.295242
    outer loop
      vertex 42.375 14.8459 5.88168
      vertex 41.625 14.8459 5.88168
      vertex 42.4635 14.5734 5
    endloop
  endfacet
  facet normal 0.561583 -0.772953 0.295242
    outer loop
      vertex 42.75 14.9677 5.48738
      vertex 42.375 14.8459 5.88168
      vertex 42.4635 14.5734 5
    endloop
  endfacet
  facet normal 0.561583 -0.772953 0.295242
    outer loop
      vertex 42.75 14.7816 5
      vertex 42.75 14.9677 5.48738
      vertex 42.4635 14.5734 5
    endloop
  endfacet
  facet normal 0.561583 0.772953 -0.295242
    outer loop
      vertex 42.5182 15.2867 5.88168
      vertex 42.75 14.9677 5.48738
      vertex 42.75 14.7816 5
    endloop
  endfacet
  facet normal 0.561583 0.772953 -0.295242
    outer loop
      vertex 42.5182 15.2867 5.88168
      vertex 42.75 14.7816 5
      vertex 42.2865 15.1183 5
    endloop
  endfacet
  facet normal 0.908661 0.295241 -0.295241
    outer loop
      vertex 42.2865 16 5.88168
      vertex 42.5182 15.2867 5.88168
      vertex 42.2865 15.1183 5
    endloop
  endfacet
  facet normal 0.908661 0.295242 -0.295242
    outer loop
      vertex 42.2865 16 5.88168
      vertex 42.2865 15.1183 5
      vertex 42 16 5
    endloop
  endfacet
  facet normal 0.908661 -0.295241 -0.295242
    outer loop
      vertex 42.5182 16.7133 5.88168
      vertex 42.2865 16 5.88168
      vertex 42 16 5
    endloop
  endfacet
  facet normal 0.908661 -0.295242 -0.295241
    outer loop
      vertex 42.2865 16.8817 5
      vertex 42.5182 16.7133 5.88168
      vertex 42 16 5
    endloop
  endfacet
  facet normal 0.561583 -0.772953 -0.295242
    outer loop
      vertex 42.2865 16.8817 5
      vertex 42.75 17.0323 5.48738
      vertex 42.5182 16.7133 5.88168
    endloop
  endfacet
  facet normal 0.561583 -0.772953 -0.295242
    outer loop
      vertex 42.5182 16.7133 5.88168
      vertex 42.75 17.0323 5.48738
      vertex 42.75 16.8817 5.88168
    endloop
  endfacet
  facet normal 0.561583 -0.772953 -0.295242
    outer loop
      vertex 42.75 17.2184 5
      vertex 42.75 17.0323 5.48738
      vertex 42.2865 16.8817 5
    endloop
  endfacet
  facet normal 0.561583 0.772953 0.295242
    outer loop
      vertex 42.4635 17.4266 5
      vertex 42.75 17.0323 5.48738
      vertex 42.75 17.2184 5
    endloop
  endfacet
  facet normal 0.561583 0.772953 0.295242
    outer loop
      vertex 42.375 17.1541 5.88168
      vertex 42.75 16.8817 5.88168
      vertex 42.4635 17.4266 5
    endloop
  endfacet
  facet normal 0.561583 0.772953 0.295242
    outer loop
      vertex 42.4635 17.4266 5
      vertex 42.75 16.8817 5.88168
      vertex 42.75 17.0323 5.48738
    endloop
  endfacet
  facet normal 0 0.955422 0.295242
    outer loop
      vertex 41.5365 17.4266 5
      vertex 41.625 17.1541 5.88168
      vertex 42.4635 17.4266 5
    endloop
  endfacet
  facet normal 0 0.955422 0.295242
    outer loop
      vertex 42.4635 17.4266 5
      vertex 41.625 17.1541 5.88168
      vertex 42.375 17.1541 5.88168
    endloop
  endfacet
  facet normal -0.561583 0.772953 0.295242
    outer loop
      vertex 41.5365 17.4266 5
      vertex 40.7865 16.8817 5
      vertex 41.625 17.1541 5.88168
    endloop
  endfacet
  facet normal -0.561583 0.772953 0.295242
    outer loop
      vertex 41.625 17.1541 5.88168
      vertex 40.7865 16.8817 5
      vertex 41.0182 16.7133 5.88168
    endloop
  endfacet
  facet normal -0.908661 0.295242 0.295241
    outer loop
      vertex 40.7865 16.8817 5
      vertex 40.5 16 5
      vertex 41.0182 16.7133 5.88168
    endloop
  endfacet
  facet normal -0.908661 0.295241 0.295242
    outer loop
      vertex 41.0182 16.7133 5.88168
      vertex 40.5 16 5
      vertex 40.7865 16 5.88168
    endloop
  endfacet
  facet normal -0.908661 -0.295242 0.295242
    outer loop
      vertex 46.7865 23.5 5.88168
      vertex 46.5 23.5 5
      vertex 46.7865 22.6183 5
    endloop
  endfacet
  facet normal -0.908661 -0.295241 0.295241
    outer loop
      vertex 46.7865 23.5 5.88168
      vertex 46.7865 22.6183 5
      vertex 47.0182 22.7867 5.88168
    endloop
  endfacet
  facet normal -0.561583 -0.772953 0.295242
    outer loop
      vertex 47.0182 22.7867 5.88168
      vertex 46.7865 22.6183 5
      vertex 47.5365 22.0734 5
    endloop
  endfacet
  facet normal -0.561583 -0.772953 0.295242
    outer loop
      vertex 47.625 22.3459 5.88168
      vertex 47.0182 22.7867 5.88168
      vertex 47.5365 22.0734 5
    endloop
  endfacet
  facet normal 0 -0.955422 0.295242
    outer loop
      vertex 47.625 22.3459 5.88168
      vertex 47.5365 22.0734 5
      vertex 48.4635 22.0734 5
    endloop
  endfacet
  facet normal 0 -0.955422 0.295242
    outer loop
      vertex 48.375 22.3459 5.88168
      vertex 47.625 22.3459 5.88168
      vertex 48.4635 22.0734 5
    endloop
  endfacet
  facet normal 0.561583 -0.772953 0.295242
    outer loop
      vertex 48.75 22.4677 5.48738
      vertex 48.375 22.3459 5.88168
      vertex 48.4635 22.0734 5
    endloop
  endfacet
  facet normal 0.561583 -0.772953 0.295242
    outer loop
      vertex 48.75 22.2816 5
      vertex 48.75 22.4677 5.48738
      vertex 48.4635 22.0734 5
    endloop
  endfacet
  facet normal 0.561583 0.772953 -0.295242
    outer loop
      vertex 48.5182 22.7867 5.88168
      vertex 48.75 22.4677 5.48738
      vertex 48.75 22.2816 5
    endloop
  endfacet
  facet normal 0.561583 0.772953 -0.295242
    outer loop
      vertex 48.5182 22.7867 5.88168
      vertex 48.75 22.2816 5
      vertex 48.2865 22.6183 5
    endloop
  endfacet
  facet normal 0.908661 0.295241 -0.295241
    outer loop
      vertex 48.2865 23.5 5.88168
      vertex 48.5182 22.7867 5.88168
      vertex 48.2865 22.6183 5
    endloop
  endfacet
  facet normal 0.908661 0.295242 -0.295242
    outer loop
      vertex 48.2865 23.5 5.88168
      vertex 48.2865 22.6183 5
      vertex 48 23.5 5
    endloop
  endfacet
  facet normal 0.908661 -0.295241 -0.295242
    outer loop
      vertex 48.5182 24.2133 5.88168
      vertex 48.2865 23.5 5.88168
      vertex 48 23.5 5
    endloop
  endfacet
  facet normal 0.908661 -0.295242 -0.295241
    outer loop
      vertex 48.2865 24.3817 5
      vertex 48.5182 24.2133 5.88168
      vertex 48 23.5 5
    endloop
  endfacet
  facet normal 0.561583 -0.772953 -0.295242
    outer loop
      vertex 48.2865 24.3817 5
      vertex 48.75 24.5323 5.48738
      vertex 48.5182 24.2133 5.88168
    endloop
  endfacet
  facet normal 0.561583 -0.772953 -0.295242
    outer loop
      vertex 48.5182 24.2133 5.88168
      vertex 48.75 24.5323 5.48738
      vertex 48.75 24.3817 5.88168
    endloop
  endfacet
  facet normal 0.561583 -0.772953 -0.295242
    outer loop
      vertex 48.75 24.7184 5
      vertex 48.75 24.5323 5.48738
      vertex 48.2865 24.3817 5
    endloop
  endfacet
  facet normal 0.561583 0.772953 0.295242
    outer loop
      vertex 48.4635 24.9266 5
      vertex 48.75 24.5323 5.48738
      vertex 48.75 24.7184 5
    endloop
  endfacet
  facet normal 0.561583 0.772953 0.295242
    outer loop
      vertex 48.375 24.6541 5.88168
      vertex 48.75 24.3817 5.88168
      vertex 48.4635 24.9266 5
    endloop
  endfacet
  facet normal 0.561583 0.772953 0.295242
    outer loop
      vertex 48.4635 24.9266 5
      vertex 48.75 24.3817 5.88168
      vertex 48.75 24.5323 5.48738
    endloop
  endfacet
  facet normal 0 0.955422 0.295242
    outer loop
      vertex 47.5365 24.9266 5
      vertex 47.625 24.6541 5.88168
      vertex 48.4635 24.9266 5
    endloop
  endfacet
  facet normal 0 0.955422 0.295242
    outer loop
      vertex 48.4635 24.9266 5
      vertex 47.625 24.6541 5.88168
      vertex 48.375 24.6541 5.88168
    endloop
  endfacet
  facet normal -0.561583 0.772953 0.295242
    outer loop
      vertex 47.5365 24.9266 5
      vertex 46.7865 24.3817 5
      vertex 47.625 24.6541 5.88168
    endloop
  endfacet
  facet normal -0.561583 0.772953 0.295242
    outer loop
      vertex 47.625 24.6541 5.88168
      vertex 46.7865 24.3817 5
      vertex 47.0182 24.2133 5.88168
    endloop
  endfacet
  facet normal -0.908661 0.295242 0.295241
    outer loop
      vertex 46.7865 24.3817 5
      vertex 46.5 23.5 5
      vertex 47.0182 24.2133 5.88168
    endloop
  endfacet
  facet normal -0.908661 0.295241 0.295242
    outer loop
      vertex 47.0182 24.2133 5.88168
      vertex 46.5 23.5 5
      vertex 46.7865 23.5 5.88168
    endloop
  endfacet
  facet normal 0 -1 2.22045e-16
    outer loop
      vertex 44 -14 10.5
      vertex 44 -14 10
      vertex 54 -14 10
    endloop
  endfacet
  facet normal 0 -1 2.22045e-16
    outer loop
      vertex 54 -14 10.5
      vertex 44 -14 10.5
      vertex 54 -14 10
    endloop
  endfacet
  facet normal 0 2.22045e-16 1
    outer loop
      vertex 44 46 10.5
      vertex 44 -14 10.5
      vertex 54 -14 10.5
    endloop
  endfacet
  facet normal 0 2.22045e-16 1
    outer loop
      vertex 54 46 10.5
      vertex 44 46 10.5
      vertex 54 -14 10.5
    endloop
  endfacet
  facet normal -0.38479 -0.272509 0.881859
    outer loop
      vertex 18.2188 17.5 6.21353
      vertex 16.5 17.5 5.46353
      vertex 16.5 17.2135 5.375
    endloop
  endfacet
  facet normal -0.384789 -0.27251 0.881859
    outer loop
      vertex 18.2188 17.5 6.21353
      vertex 16.5 17.2135 5.375
      vertex 18.2188 16.75 5.98176
    endloop
  endfacet
  facet normal -0.393936 -0.730397 0.557974
    outer loop
      vertex 18.2188 16.75 5.98176
      vertex 16.5 17.2135 5.375
      vertex 16.5 17.0365 5.14324
    endloop
  endfacet
  facet normal -0.393936 -0.730397 0.557974
    outer loop
      vertex 18.2188 16.75 5.98176
      vertex 16.5 17.0365 5.14324
      vertex 18.2188 16.2865 5.375
    endloop
  endfacet
  facet normal -0.393936 0.730397 0.557974
    outer loop
      vertex 16.5 17.9635 5.14324
      vertex 16.5 17.7865 5.375
      vertex 18.2188 18.7135 5.375
    endloop
  endfacet
  facet normal -0.393936 0.730397 0.557974
    outer loop
      vertex 18.2188 18.7135 5.375
      vertex 16.5 17.7865 5.375
      vertex 18.2188 18.25 5.98176
    endloop
  endfacet
  facet normal -0.384789 0.272509 0.881859
    outer loop
      vertex 16.5 17.7865 5.375
      vertex 16.5 17.5 5.46353
      vertex 18.2188 18.25 5.98176
    endloop
  endfacet
  facet normal -0.38479 0.27251 0.881859
    outer loop
      vertex 18.2188 18.25 5.98176
      vertex 16.5 17.5 5.46353
      vertex 18.2188 17.5 6.21353
    endloop
  endfacet
  facet normal -0.100663 -0.790618 0.603979
    outer loop
      vertex 21 16.5729 6.21353
      vertex 18.2188 16.75 5.98176
      vertex 18.2188 16.2865 5.375
    endloop
  endfacet
  facet normal -0.100663 -0.790618 0.603978
    outer loop
      vertex 21 16.5729 6.21353
      vertex 18.2188 16.2865 5.375
      vertex 21 16 5.46353
    endloop
  endfacet
  facet normal 0.100663 -0.790618 0.603978
    outer loop
      vertex 23.7812 16.75 5.98176
      vertex 21 16.5729 6.21353
      vertex 21 16 5.46353
    endloop
  endfacet
  facet normal 0.100663 -0.790618 0.603979
    outer loop
      vertex 23.7812 16.75 5.98176
      vertex 21 16 5.46353
      vertex 23.7812 16.2865 5.375
    endloop
  endfacet
  facet normal 0.393936 -0.730397 0.557974
    outer loop
      vertex 25.5 17.2135 5.375
      vertex 23.7812 16.75 5.98176
      vertex 23.7812 16.2865 5.375
    endloop
  endfacet
  facet normal 0.393936 -0.730397 0.557974
    outer loop
      vertex 25.5 17.2135 5.375
      vertex 23.7812 16.2865 5.375
      vertex 25.5 17.0365 5.14324
    endloop
  endfacet
  facet normal 0.38479 0.272509 0.881859
    outer loop
      vertex 25.5 17.7865 5.375
      vertex 23.7812 17.5 6.21353
      vertex 25.5 17.5 5.46353
    endloop
  endfacet
  facet normal 0.384789 0.27251 0.881859
    outer loop
      vertex 23.7812 18.25 5.98176
      vertex 23.7812 17.5 6.21353
      vertex 25.5 17.7865 5.375
    endloop
  endfacet
  facet normal 0.393936 0.730397 0.557974
    outer loop
      vertex 25.5 17.9635 5.14324
      vertex 23.7812 18.25 5.98176
      vertex 25.5 17.7865 5.375
    endloop
  endfacet
  facet normal 0.393936 0.730397 0.557974
    outer loop
      vertex 23.7812 18.7135 5.375
      vertex 23.7812 18.25 5.98176
      vertex 25.5 17.9635 5.14324
    endloop
  endfacet
  facet normal 0.384789 -0.272509 0.881859
    outer loop
      vertex 25.5 17.5 5.46353
      vertex 23.7812 16.75 5.98176
      vertex 25.5 17.2135 5.375
    endloop
  endfacet
  facet normal 0.38479 -0.27251 0.881859
    outer loop
      vertex 25.5 17.5 5.46353
      vertex 23.7812 17.5 6.21353
      vertex 23.7812 16.75 5.98176
    endloop
  endfacet
  facet normal 0.100663 0.790618 0.603979
    outer loop
      vertex 23.7812 18.7135 5.375
      vertex 21 18.4271 6.21353
      vertex 23.7812 18.25 5.98176
    endloop
  endfacet
  facet normal 0.100663 0.790618 0.603978
    outer loop
      vertex 21 19 5.46353
      vertex 21 18.4271 6.21353
      vertex 23.7812 18.7135 5.375
    endloop
  endfacet
  facet normal -0.100663 0.790618 0.603978
    outer loop
      vertex 21 19 5.46353
      vertex 18.2188 18.25 5.98176
      vertex 21 18.4271 6.21353
    endloop
  endfacet
  facet normal -0.100663 0.790618 0.603979
    outer loop
      vertex 18.2188 18.7135 5.375
      vertex 18.2188 18.25 5.98176
      vertex 21 19 5.46353
    endloop
  endfacet
  facet normal -0.57735 0.187592 0.794654
    outer loop
      vertex 26.0182 18.2133 5.88168
      vertex 25.7865 17.5 5.88168
      vertex 26.625 17.7725 6.42658
    endloop
  endfacet
  facet normal -0.57735 0.187592 0.794655
    outer loop
      vertex 26.625 17.7725 6.42658
      vertex 25.7865 17.5 5.88168
      vertex 26.5365 17.5 6.42658
    endloop
  endfacet
  facet normal -0.57735 -0.187592 0.794654
    outer loop
      vertex 26.5365 17.5 6.42658
      vertex 25.7865 17.5 5.88168
      vertex 26.0182 16.7867 5.88168
    endloop
  endfacet
  facet normal -0.577351 -0.187592 0.794654
    outer loop
      vertex 26.5365 17.5 6.42658
      vertex 26.0182 16.7867 5.88168
      vertex 26.625 17.2275 6.42658
    endloop
  endfacet
  facet normal -0.356822 -0.491124 0.794654
    outer loop
      vertex 26.625 17.2275 6.42658
      vertex 26.0182 16.7867 5.88168
      vertex 26.625 16.3459 5.88168
    endloop
  endfacet
  facet normal -0.356823 -0.491123 0.794654
    outer loop
      vertex 26.625 17.2275 6.42658
      vertex 26.625 16.3459 5.88168
      vertex 26.8568 17.0592 6.42658
    endloop
  endfacet
  facet normal 0 -0.607062 0.794654
    outer loop
      vertex 26.8568 17.0592 6.42658
      vertex 26.625 16.3459 5.88168
      vertex 27.375 16.3459 5.88168
    endloop
  endfacet
  facet normal 0 -0.607062 0.794654
    outer loop
      vertex 27.1432 17.0592 6.42658
      vertex 26.8568 17.0592 6.42658
      vertex 27.375 16.3459 5.88168
    endloop
  endfacet
  facet normal 0.561583 -0.772953 0.295242
    outer loop
      vertex 27.75 16.6183 5.88168
      vertex 27.375 16.3459 5.88168
      vertex 27.75 16.4677 5.48738
    endloop
  endfacet
  facet normal 0.356822 -0.491124 0.794654
    outer loop
      vertex 27.75 16.862 6.03229
      vertex 27.1432 17.0592 6.42658
      vertex 27.375 16.3459 5.88168
    endloop
  endfacet
  facet normal 0.356822 -0.491124 0.794654
    outer loop
      vertex 27.75 16.6183 5.88168
      vertex 27.75 16.862 6.03229
      vertex 27.375 16.3459 5.88168
    endloop
  endfacet
  facet normal 0.561583 0.772953 -0.295242
    outer loop
      vertex 27.75 16.6183 5.88168
      vertex 27.75 16.4677 5.48738
      vertex 27.5182 16.7867 5.88168
    endloop
  endfacet
  facet normal 0.356822 0.491124 -0.794654
    outer loop
      vertex 27.75 16.862 6.03229
      vertex 27.75 16.6183 5.88168
      vertex 27.75 16.9551 6.08981
    endloop
  endfacet
  facet normal 0.356822 0.491124 -0.794654
    outer loop
      vertex 27.75 16.9551 6.08981
      vertex 27.75 16.6183 5.88168
      vertex 27.5182 16.7867 5.88168
    endloop
  endfacet
  facet normal 0.577351 0.187592 -0.794654
    outer loop
      vertex 27.75 17.1057 6.12537
      vertex 27.75 16.9551 6.08981
      vertex 27.5182 16.7867 5.88168
    endloop
  endfacet
  facet normal 0.57735 0.187592 -0.794654
    outer loop
      vertex 27.75 17.3494 6.1829
      vertex 27.75 17.1057 6.12537
      vertex 27.75 17.5 6.21845
    endloop
  endfacet
  facet normal 0.57735 0.187592 -0.794654
    outer loop
      vertex 27.75 17.5 6.21845
      vertex 27.75 17.1057 6.12537
      vertex 27.5182 16.7867 5.88168
    endloop
  endfacet
  facet normal 0.57735 0.187592 -0.794654
    outer loop
      vertex 27.75 17.5 6.21845
      vertex 27.5182 16.7867 5.88168
      vertex 27.2865 17.5 5.88168
    endloop
  endfacet
  facet normal 0.57735 -0.187592 -0.794655
    outer loop
      vertex 27.75 17.6506 6.1829
      vertex 27.75 17.5 6.21845
      vertex 27.2865 17.5 5.88168
    endloop
  endfacet
  facet normal 0.57735 -0.187592 -0.794654
    outer loop
      vertex 27.75 18.0449 6.08981
      vertex 27.75 17.8943 6.12537
      vertex 27.5182 18.2133 5.88168
    endloop
  endfacet
  facet normal 0.57735 -0.187592 -0.794654
    outer loop
      vertex 27.5182 18.2133 5.88168
      vertex 27.75 17.8943 6.12537
      vertex 27.75 17.6506 6.1829
    endloop
  endfacet
  facet normal 0.57735 -0.187592 -0.794654
    outer loop
      vertex 27.5182 18.2133 5.88168
      vertex 27.75 17.6506 6.1829
      vertex 27.2865 17.5 5.88168
    endloop
  endfacet
  facet normal 0.356822 -0.491123 -0.794655
    outer loop
      vertex 27.75 18.138 6.03229
      vertex 27.75 18.0449 6.08981
      vertex 27.5182 18.2133 5.88168
    endloop
  endfacet
  facet normal 0.356822 -0.491124 -0.794654
    outer loop
      vertex 27.75 18.3817 5.88168
      vertex 27.75 18.138 6.03229
      vertex 27.5182 18.2133 5.88168
    endloop
  endfacet
  facet normal 0.356822 0.491124 0.794654
    outer loop
      vertex 27.375 18.6541 5.88168
      vertex 27.375 17.7725 6.42658
      vertex 27.75 18.0449 6.08981
    endloop
  endfacet
  facet normal 0.356822 0.491124 0.794654
    outer loop
      vertex 27.75 18.3817 5.88168
      vertex 27.375 18.6541 5.88168
      vertex 27.75 18.138 6.03229
    endloop
  endfacet
  facet normal 0.356822 0.491124 0.794654
    outer loop
      vertex 27.75 18.138 6.03229
      vertex 27.375 18.6541 5.88168
      vertex 27.75 18.0449 6.08981
    endloop
  endfacet
  facet normal 0.356823 0.491123 0.794654
    outer loop
      vertex 27.375 18.6541 5.88168
      vertex 27.1432 17.9408 6.42658
      vertex 27.375 17.7725 6.42658
    endloop
  endfacet
  facet normal 0 0.607062 0.794654
    outer loop
      vertex 27.375 18.6541 5.88168
      vertex 26.625 18.6541 5.88168
      vertex 26.8568 17.9408 6.42658
    endloop
  endfacet
  facet normal 0 0.607062 0.794654
    outer loop
      vertex 27.1432 17.9408 6.42658
      vertex 27.375 18.6541 5.88168
      vertex 26.8568 17.9408 6.42658
    endloop
  endfacet
  facet normal -0.356822 0.491124 0.794654
    outer loop
      vertex 26.625 18.6541 5.88168
      vertex 26.0182 18.2133 5.88168
      vertex 26.8568 17.9408 6.42658
    endloop
  endfacet
  facet normal -0.356822 0.491123 0.794655
    outer loop
      vertex 26.8568 17.9408 6.42658
      vertex 26.0182 18.2133 5.88168
      vertex 26.625 17.7725 6.42658
    endloop
  endfacet
  facet normal -0.38479 -0.272509 0.881859
    outer loop
      vertex 33.2188 16 6.21353
      vertex 31.5 16 5.46353
      vertex 31.5 15.7135 5.375
    endloop
  endfacet
  facet normal -0.384789 -0.27251 0.881859
    outer loop
      vertex 33.2188 16 6.21353
      vertex 31.5 15.7135 5.375
      vertex 33.2188 15.25 5.98176
    endloop
  endfacet
  facet normal -0.393936 -0.730397 0.557974
    outer loop
      vertex 33.2188 15.25 5.98176
      vertex 31.5 15.7135 5.375
      vertex 31.5 15.5365 5.14324
    endloop
  endfacet
  facet normal -0.393936 -0.730397 0.557974
    outer loop
      vertex 33.2188 15.25 5.98176
      vertex 31.5 15.5365 5.14324
      vertex 33.2188 14.7865 5.375
    endloop
  endfacet
  facet normal -0.393936 0.730397 0.557974
    outer loop
      vertex 31.5 16.4635 5.14324
      vertex 31.5 16.2865 5.375
      vertex 33.2188 17.2135 5.375
    endloop
  endfacet
  facet normal -0.393936 0.730397 0.557974
    outer loop
      vertex 33.2188 17.2135 5.375
      vertex 31.5 16.2865 5.375
      vertex 33.2188 16.75 5.98176
    endloop
  endfacet
  facet normal -0.384789 0.272509 0.881859
    outer loop
      vertex 31.5 16.2865 5.375
      vertex 31.5 16 5.46353
      vertex 33.2188 16.75 5.98176
    endloop
  endfacet
  facet normal -0.38479 0.27251 0.881859
    outer loop
      vertex 33.2188 16.75 5.98176
      vertex 31.5 16 5.46353
      vertex 33.2188 16 6.21353
    endloop
  endfacet
  facet normal -0.100663 -0.790618 0.603979
    outer loop
      vertex 36 15.0729 6.21353
      vertex 33.2188 15.25 5.98176
      vertex 33.2188 14.7865 5.375
    endloop
  endfacet
  facet normal -0.100663 -0.790618 0.603978
    outer loop
      vertex 36 15.0729 6.21353
      vertex 33.2188 14.7865 5.375
      vertex 36 14.5 5.46353
    endloop
  endfacet
  facet normal 0.100663 -0.790618 0.603978
    outer loop
      vertex 38.7812 15.25 5.98176
      vertex 36 15.0729 6.21353
      vertex 36 14.5 5.46353
    endloop
  endfacet
  facet normal 0.100663 -0.790618 0.603979
    outer loop
      vertex 38.7812 15.25 5.98176
      vertex 36 14.5 5.46353
      vertex 38.7812 14.7865 5.375
    endloop
  endfacet
  facet normal 0.393936 -0.730397 0.557974
    outer loop
      vertex 40.5 15.7135 5.375
      vertex 38.7812 15.25 5.98176
      vertex 38.7812 14.7865 5.375
    endloop
  endfacet
  facet normal 0.393936 -0.730397 0.557974
    outer loop
      vertex 40.5 15.7135 5.375
      vertex 38.7812 14.7865 5.375
      vertex 40.5 15.5365 5.14324
    endloop
  endfacet
  facet normal 0.38479 0.272509 0.881859
    outer loop
      vertex 40.5 16.2865 5.375
      vertex 38.7812 16 6.21353
      vertex 40.5 16 5.46353
    endloop
  endfacet
  facet normal 0.384789 0.27251 0.881859
    outer loop
      vertex 38.7812 16.75 5.98176
      vertex 38.7812 16 6.21353
      vertex 40.5 16.2865 5.375
    endloop
  endfacet
  facet normal 0.393936 0.730397 0.557974
    outer loop
      vertex 40.5 16.4635 5.14324
      vertex 38.7812 16.75 5.98176
      vertex 40.5 16.2865 5.375
    endloop
  endfacet
  facet normal 0.393936 0.730397 0.557974
    outer loop
      vertex 38.7812 17.2135 5.375
      vertex 38.7812 16.75 5.98176
      vertex 40.5 16.4635 5.14324
    endloop
  endfacet
  facet normal 0.384789 -0.272509 0.881859
    outer loop
      vertex 40.5 16 5.46353
      vertex 38.7812 15.25 5.98176
      vertex 40.5 15.7135 5.375
    endloop
  endfacet
  facet normal 0.38479 -0.27251 0.881859
    outer loop
      vertex 40.5 16 5.46353
      vertex 38.7812 16 6.21353
      vertex 38.7812 15.25 5.98176
    endloop
  endfacet
  facet normal 0.100663 0.790618 0.603979
    outer loop
      vertex 38.7812 17.2135 5.375
      vertex 36 16.9271 6.21353
      vertex 38.7812 16.75 5.98176
    endloop
  endfacet
  facet normal 0.100663 0.790618 0.603978
    outer loop
      vertex 36 17.5 5.46353
      vertex 36 16.9271 6.21353
      vertex 38.7812 17.2135 5.375
    endloop
  endfacet
  facet normal -0.100663 0.790618 0.603978
    outer loop
      vertex 36 17.5 5.46353
      vertex 33.2188 16.75 5.98176
      vertex 36 16.9271 6.21353
    endloop
  endfacet
  facet normal -0.100663 0.790618 0.603979
    outer loop
      vertex 33.2188 17.2135 5.375
      vertex 33.2188 16.75 5.98176
      vertex 36 17.5 5.46353
    endloop
  endfacet
  facet normal -0.38479 -0.272509 0.881859
    outer loop
      vertex 39.2188 23.5 6.21353
      vertex 37.5 23.5 5.46353
      vertex 37.5 23.2135 5.375
    endloop
  endfacet
  facet normal -0.384789 -0.27251 0.881859
    outer loop
      vertex 39.2188 23.5 6.21353
      vertex 37.5 23.2135 5.375
      vertex 39.2188 22.75 5.98176
    endloop
  endfacet
  facet normal -0.393936 -0.730397 0.557974
    outer loop
      vertex 39.2188 22.75 5.98176
      vertex 37.5 23.2135 5.375
      vertex 37.5 23.0365 5.14324
    endloop
  endfacet
  facet normal -0.393936 -0.730397 0.557974
    outer loop
      vertex 39.2188 22.75 5.98176
      vertex 37.5 23.0365 5.14324
      vertex 39.2188 22.2865 5.375
    endloop
  endfacet
  facet normal -0.393936 0.730397 0.557974
    outer loop
      vertex 37.5 23.9635 5.14324
      vertex 37.5 23.7865 5.375
      vertex 39.2188 24.7135 5.375
    endloop
  endfacet
  facet normal -0.393936 0.730397 0.557974
    outer loop
      vertex 39.2188 24.7135 5.375
      vertex 37.5 23.7865 5.375
      vertex 39.2188 24.25 5.98176
    endloop
  endfacet
  facet normal -0.384789 0.272509 0.881859
    outer loop
      vertex 37.5 23.7865 5.375
      vertex 37.5 23.5 5.46353
      vertex 39.2188 24.25 5.98176
    endloop
  endfacet
  facet normal -0.38479 0.27251 0.881859
    outer loop
      vertex 39.2188 24.25 5.98176
      vertex 37.5 23.5 5.46353
      vertex 39.2188 23.5 6.21353
    endloop
  endfacet
  facet normal -0.100663 -0.790618 0.603979
    outer loop
      vertex 42 22.5729 6.21353
      vertex 39.2188 22.75 5.98176
      vertex 39.2188 22.2865 5.375
    endloop
  endfacet
  facet normal -0.100663 -0.790618 0.603978
    outer loop
      vertex 42 22.5729 6.21353
      vertex 39.2188 22.2865 5.375
      vertex 42 22 5.46353
    endloop
  endfacet
  facet normal 0.100663 -0.790618 0.603978
    outer loop
      vertex 44.7812 22.75 5.98176
      vertex 42 22.5729 6.21353
      vertex 42 22 5.46353
    endloop
  endfacet
  facet normal 0.100663 -0.790618 0.603979
    outer loop
      vertex 44.7812 22.75 5.98176
      vertex 42 22 5.46353
      vertex 44.7812 22.2865 5.375
    endloop
  endfacet
  facet normal 0.393936 -0.730397 0.557974
    outer loop
      vertex 46.5 23.2135 5.375
      vertex 44.7812 22.75 5.98176
      vertex 44.7812 22.2865 5.375
    endloop
  endfacet
  facet normal 0.393936 -0.730397 0.557974
    outer loop
      vertex 46.5 23.2135 5.375
      vertex 44.7812 22.2865 5.375
      vertex 46.5 23.0365 5.14324
    endloop
  endfacet
  facet normal 0.38479 0.272509 0.881859
    outer loop
      vertex 46.5 23.7865 5.375
      vertex 44.7812 23.5 6.21353
      vertex 46.5 23.5 5.46353
    endloop
  endfacet
  facet normal 0.384789 0.27251 0.881859
    outer loop
      vertex 44.7812 24.25 5.98176
      vertex 44.7812 23.5 6.21353
      vertex 46.5 23.7865 5.375
    endloop
  endfacet
  facet normal 0.393936 0.730397 0.557974
    outer loop
      vertex 46.5 23.9635 5.14324
      vertex 44.7812 24.25 5.98176
      vertex 46.5 23.7865 5.375
    endloop
  endfacet
  facet normal 0.393936 0.730397 0.557974
    outer loop
      vertex 44.7812 24.7135 5.375
      vertex 44.7812 24.25 5.98176
      vertex 46.5 23.9635 5.14324
    endloop
  endfacet
  facet normal 0.384789 -0.272509 0.881859
    outer loop
      vertex 46.5 23.5 5.46353
      vertex 44.7812 22.75 5.98176
      vertex 46.5 23.2135 5.375
    endloop
  endfacet
  facet normal 0.38479 -0.27251 0.881859
    outer loop
      vertex 46.5 23.5 5.46353
      vertex 44.7812 23.5 6.21353
      vertex 44.7812 22.75 5.98176
    endloop
  endfacet
  facet normal 0.100663 0.790618 0.603979
    outer loop
      vertex 44.7812 24.7135 5.375
      vertex 42 24.4271 6.21353
      vertex 44.7812 24.25 5.98176
    endloop
  endfacet
  facet normal 0.100663 0.790618 0.603978
    outer loop
      vertex 42 25 5.46353
      vertex 42 24.4271 6.21353
      vertex 44.7812 24.7135 5.375
    endloop
  endfacet
  facet normal -0.100663 0.790618 0.603978
    outer loop
      vertex 42 25 5.46353
      vertex 39.2188 24.25 5.98176
      vertex 42 24.4271 6.21353
    endloop
  endfacet
  facet normal -0.100663 0.790618 0.603979
    outer loop
      vertex 39.2188 24.7135 5.375
      vertex 39.2188 24.25 5.98176
      vertex 42 25 5.46353
    endloop
  endfacet
  facet normal -0.57735 0.187592 0.794654
    outer loop
      vertex 41.0182 16.7133 5.88168
      vertex 40.7865 16 5.88168
      vertex 41.625 16.2725 6.42658
    endloop
  endfacet
  facet normal -0.57735 0.187592 0.794655
    outer loop
      vertex 41.625 16.2725 6.42658
      vertex 40.7865 16 5.88168
      vertex 41.5365 16 6.42658
    endloop
  endfacet
  facet normal -0.57735 -0.187592 0.794654
    outer loop
      vertex 41.5365 16 6.42658
      vertex 40.7865 16 5.88168
      vertex 41.0182 15.2867 5.88168
    endloop
  endfacet
  facet normal -0.577351 -0.187592 0.794654
    outer loop
      vertex 41.5365 16 6.42658
      vertex 41.0182 15.2867 5.88168
      vertex 41.625 15.7275 6.42658
    endloop
  endfacet
  facet normal -0.356822 -0.491124 0.794654
    outer loop
      vertex 41.625 15.7275 6.42658
      vertex 41.0182 15.2867 5.88168
      vertex 41.625 14.8459 5.88168
    endloop
  endfacet
  facet normal -0.356823 -0.491123 0.794654
    outer loop
      vertex 41.625 15.7275 6.42658
      vertex 41.625 14.8459 5.88168
      vertex 41.8568 15.5592 6.42658
    endloop
  endfacet
  facet normal 0 -0.607062 0.794654
    outer loop
      vertex 41.8568 15.5592 6.42658
      vertex 41.625 14.8459 5.88168
      vertex 42.375 14.8459 5.88168
    endloop
  endfacet
  facet normal 0 -0.607062 0.794654
    outer loop
      vertex 42.1432 15.5592 6.42658
      vertex 41.8568 15.5592 6.42658
      vertex 42.375 14.8459 5.88168
    endloop
  endfacet
  facet normal 0.561583 -0.772953 0.295242
    outer loop
      vertex 42.75 15.1183 5.88168
      vertex 42.375 14.8459 5.88168
      vertex 42.75 14.9677 5.48738
    endloop
  endfacet
  facet normal 0.356822 -0.491124 0.794654
    outer loop
      vertex 42.75 15.362 6.03229
      vertex 42.1432 15.5592 6.42658
      vertex 42.375 14.8459 5.88168
    endloop
  endfacet
  facet normal 0.356822 -0.491124 0.794654
    outer loop
      vertex 42.75 15.1183 5.88168
      vertex 42.75 15.362 6.03229
      vertex 42.375 14.8459 5.88168
    endloop
  endfacet
  facet normal 0.561583 0.772953 -0.295242
    outer loop
      vertex 42.75 15.1183 5.88168
      vertex 42.75 14.9677 5.48738
      vertex 42.5182 15.2867 5.88168
    endloop
  endfacet
  facet normal 0.356822 0.491124 -0.794654
    outer loop
      vertex 42.75 15.362 6.03229
      vertex 42.75 15.1183 5.88168
      vertex 42.75 15.4551 6.08981
    endloop
  endfacet
  facet normal 0.356822 0.491124 -0.794654
    outer loop
      vertex 42.75 15.4551 6.08981
      vertex 42.75 15.1183 5.88168
      vertex 42.5182 15.2867 5.88168
    endloop
  endfacet
  facet normal 0.577351 0.187592 -0.794654
    outer loop
      vertex 42.75 15.6057 6.12537
      vertex 42.75 15.4551 6.08981
      vertex 42.5182 15.2867 5.88168
    endloop
  endfacet
  facet normal 0.57735 0.187592 -0.794654
    outer loop
      vertex 42.75 15.8494 6.1829
      vertex 42.75 15.6057 6.12537
      vertex 42.75 16 6.21845
    endloop
  endfacet
  facet normal 0.57735 0.187592 -0.794654
    outer loop
      vertex 42.75 16 6.21845
      vertex 42.75 15.6057 6.12537
      vertex 42.5182 15.2867 5.88168
    endloop
  endfacet
  facet normal 0.57735 0.187592 -0.794654
    outer loop
      vertex 42.75 16 6.21845
      vertex 42.5182 15.2867 5.88168
      vertex 42.2865 16 5.88168
    endloop
  endfacet
  facet normal 0.57735 -0.187592 -0.794655
    outer loop
      vertex 42.75 16.1506 6.1829
      vertex 42.75 16 6.21845
      vertex 42.2865 16 5.88168
    endloop
  endfacet
  facet normal 0.57735 -0.187592 -0.794654
    outer loop
      vertex 42.75 16.5449 6.08981
      vertex 42.75 16.3943 6.12537
      vertex 42.5182 16.7133 5.88168
    endloop
  endfacet
  facet normal 0.57735 -0.187592 -0.794654
    outer loop
      vertex 42.5182 16.7133 5.88168
      vertex 42.75 16.3943 6.12537
      vertex 42.75 16.1506 6.1829
    endloop
  endfacet
  facet normal 0.57735 -0.187592 -0.794654
    outer loop
      vertex 42.5182 16.7133 5.88168
      vertex 42.75 16.1506 6.1829
      vertex 42.2865 16 5.88168
    endloop
  endfacet
  facet normal 0.356822 -0.491123 -0.794655
    outer loop
      vertex 42.75 16.638 6.03229
      vertex 42.75 16.5449 6.08981
      vertex 42.5182 16.7133 5.88168
    endloop
  endfacet
  facet normal 0.356822 -0.491124 -0.794654
    outer loop
      vertex 42.75 16.8817 5.88168
      vertex 42.75 16.638 6.03229
      vertex 42.5182 16.7133 5.88168
    endloop
  endfacet
  facet normal 0.356822 0.491124 0.794654
    outer loop
      vertex 42.375 17.1541 5.88168
      vertex 42.375 16.2725 6.42658
      vertex 42.75 16.5449 6.08981
    endloop
  endfacet
  facet normal 0.356822 0.491124 0.794654
    outer loop
      vertex 42.75 16.8817 5.88168
      vertex 42.375 17.1541 5.88168
      vertex 42.75 16.638 6.03229
    endloop
  endfacet
  facet normal 0.356822 0.491124 0.794654
    outer loop
      vertex 42.75 16.638 6.03229
      vertex 42.375 17.1541 5.88168
      vertex 42.75 16.5449 6.08981
    endloop
  endfacet
  facet normal 0.356823 0.491123 0.794654
    outer loop
      vertex 42.375 17.1541 5.88168
      vertex 42.1432 16.4408 6.42658
      vertex 42.375 16.2725 6.42658
    endloop
  endfacet
  facet normal 0 0.607062 0.794654
    outer loop
      vertex 42.375 17.1541 5.88168
      vertex 41.625 17.1541 5.88168
      vertex 41.8568 16.4408 6.42658
    endloop
  endfacet
  facet normal 0 0.607062 0.794654
    outer loop
      vertex 42.1432 16.4408 6.42658
      vertex 42.375 17.1541 5.88168
      vertex 41.8568 16.4408 6.42658
    endloop
  endfacet
  facet normal -0.356822 0.491124 0.794654
    outer loop
      vertex 41.625 17.1541 5.88168
      vertex 41.0182 16.7133 5.88168
      vertex 41.8568 16.4408 6.42658
    endloop
  endfacet
  facet normal -0.356822 0.491123 0.794655
    outer loop
      vertex 41.8568 16.4408 6.42658
      vertex 41.0182 16.7133 5.88168
      vertex 41.625 16.2725 6.42658
    endloop
  endfacet
  facet normal -0.57735 0.187592 0.794654
    outer loop
      vertex 47.0182 24.2133 5.88168
      vertex 46.7865 23.5 5.88168
      vertex 47.625 23.7725 6.42658
    endloop
  endfacet
  facet normal -0.57735 0.187592 0.794655
    outer loop
      vertex 47.625 23.7725 6.42658
      vertex 46.7865 23.5 5.88168
      vertex 47.5365 23.5 6.42658
    endloop
  endfacet
  facet normal -0.57735 -0.187592 0.794654
    outer loop
      vertex 47.5365 23.5 6.42658
      vertex 46.7865 23.5 5.88168
      vertex 47.0182 22.7867 5.88168
    endloop
  endfacet
  facet normal -0.577351 -0.187592 0.794654
    outer loop
      vertex 47.5365 23.5 6.42658
      vertex 47.0182 22.7867 5.88168
      vertex 47.625 23.2275 6.42658
    endloop
  endfacet
  facet normal -0.356822 -0.491124 0.794654
    outer loop
      vertex 47.625 23.2275 6.42658
      vertex 47.0182 22.7867 5.88168
      vertex 47.625 22.3459 5.88168
    endloop
  endfacet
  facet normal -0.356823 -0.491123 0.794654
    outer loop
      vertex 47.625 23.2275 6.42658
      vertex 47.625 22.3459 5.88168
      vertex 47.8568 23.0592 6.42658
    endloop
  endfacet
  facet normal 0 -0.607062 0.794654
    outer loop
      vertex 47.8568 23.0592 6.42658
      vertex 47.625 22.3459 5.88168
      vertex 48.375 22.3459 5.88168
    endloop
  endfacet
  facet normal 0 -0.607062 0.794654
    outer loop
      vertex 48.1432 23.0592 6.42658
      vertex 47.8568 23.0592 6.42658
      vertex 48.375 22.3459 5.88168
    endloop
  endfacet
  facet normal 0.561583 -0.772953 0.295242
    outer loop
      vertex 48.75 22.6183 5.88168
      vertex 48.375 22.3459 5.88168
      vertex 48.75 22.4677 5.48738
    endloop
  endfacet
  facet normal 0.356822 -0.491124 0.794654
    outer loop
      vertex 48.75 22.862 6.03229
      vertex 48.1432 23.0592 6.42658
      vertex 48.375 22.3459 5.88168
    endloop
  endfacet
  facet normal 0.356822 -0.491124 0.794654
    outer loop
      vertex 48.75 22.6183 5.88168
      vertex 48.75 22.862 6.03229
      vertex 48.375 22.3459 5.88168
    endloop
  endfacet
  facet normal 0.561583 0.772953 -0.295242
    outer loop
      vertex 48.75 22.6183 5.88168
      vertex 48.75 22.4677 5.48738
      vertex 48.5182 22.7867 5.88168
    endloop
  endfacet
  facet normal 0.356822 0.491124 -0.794654
    outer loop
      vertex 48.75 22.862 6.03229
      vertex 48.75 22.6183 5.88168
      vertex 48.75 22.9551 6.08981
    endloop
  endfacet
  facet normal 0.356822 0.491124 -0.794654
    outer loop
      vertex 48.75 22.9551 6.08981
      vertex 48.75 22.6183 5.88168
      vertex 48.5182 22.7867 5.88168
    endloop
  endfacet
  facet normal 0.577351 0.187592 -0.794654
    outer loop
      vertex 48.75 23.1057 6.12537
      vertex 48.75 22.9551 6.08981
      vertex 48.5182 22.7867 5.88168
    endloop
  endfacet
  facet normal 0.57735 0.187592 -0.794654
    outer loop
      vertex 48.75 23.3494 6.1829
      vertex 48.75 23.1057 6.12537
      vertex 48.75 23.5 6.21845
    endloop
  endfacet
  facet normal 0.57735 0.187592 -0.794654
    outer loop
      vertex 48.75 23.5 6.21845
      vertex 48.75 23.1057 6.12537
      vertex 48.5182 22.7867 5.88168
    endloop
  endfacet
  facet normal 0.57735 0.187592 -0.794654
    outer loop
      vertex 48.75 23.5 6.21845
      vertex 48.5182 22.7867 5.88168
      vertex 48.2865 23.5 5.88168
    endloop
  endfacet
  facet normal 0.57735 -0.187592 -0.794655
    outer loop
      vertex 48.75 23.6506 6.1829
      vertex 48.75 23.5 6.21845
      vertex 48.2865 23.5 5.88168
    endloop
  endfacet
  facet normal 0.57735 -0.187592 -0.794654
    outer loop
      vertex 48.75 24.0449 6.08981
      vertex 48.75 23.8943 6.12537
      vertex 48.5182 24.2133 5.88168
    endloop
  endfacet
  facet normal 0.57735 -0.187592 -0.794654
    outer loop
      vertex 48.5182 24.2133 5.88168
      vertex 48.75 23.8943 6.12537
      vertex 48.75 23.6506 6.1829
    endloop
  endfacet
  facet normal 0.57735 -0.187592 -0.794654
    outer loop
      vertex 48.5182 24.2133 5.88168
      vertex 48.75 23.6506 6.1829
      vertex 48.2865 23.5 5.88168
    endloop
  endfacet
  facet normal 0.356822 -0.491123 -0.794655
    outer loop
      vertex 48.75 24.138 6.03229
      vertex 48.75 24.0449 6.08981
      vertex 48.5182 24.2133 5.88168
    endloop
  endfacet
  facet normal 0.356822 -0.491124 -0.794654
    outer loop
      vertex 48.75 24.3817 5.88168
      vertex 48.75 24.138 6.03229
      vertex 48.5182 24.2133 5.88168
    endloop
  endfacet
  facet normal 0.356822 0.491124 0.794654
    outer loop
      vertex 48.375 24.6541 5.88168
      vertex 48.375 23.7725 6.42658
      vertex 48.75 24.0449 6.08981
    endloop
  endfacet
  facet normal 0.356822 0.491124 0.794654
    outer loop
      vertex 48.75 24.3817 5.88168
      vertex 48.375 24.6541 5.88168
      vertex 48.75 24.138 6.03229
    endloop
  endfacet
  facet normal 0.356822 0.491124 0.794654
    outer loop
      vertex 48.75 24.138 6.03229
      vertex 48.375 24.6541 5.88168
      vertex 48.75 24.0449 6.08981
    endloop
  endfacet
  facet normal 0.356823 0.491123 0.794654
    outer loop
      vertex 48.375 24.6541 5.88168
      vertex 48.1432 23.9408 6.42658
      vertex 48.375 23.7725 6.42658
    endloop
  endfacet
  facet normal 0 0.607062 0.794654
    outer loop
      vertex 48.375 24.6541 5.88168
      vertex 47.625 24.6541 5.88168
      vertex 47.8568 23.9408 6.42658
    endloop
  endfacet
  facet normal 0 0.607062 0.794654
    outer loop
      vertex 48.1432 23.9408 6.42658
      vertex 48.375 24.6541 5.88168
      vertex 47.8568 23.9408 6.42658
    endloop
  endfacet
  facet normal -0.356822 0.491124 0.794654
    outer loop
      vertex 47.625 24.6541 5.88168
      vertex 47.0182 24.2133 5.88168
      vertex 47.8568 23.9408 6.42658
    endloop
  endfacet
  facet normal -0.356822 0.491123 0.794655
    outer loop
      vertex 47.8568 23.9408 6.42658
      vertex 47.0182 24.2133 5.88168
      vertex 47.625 23.7725 6.42658
    endloop
  endfacet
  facet normal -0.0979409 0.293823 0.950829
    outer loop
      vertex 18.2188 18.25 5.98176
      vertex 18.2188 17.5 6.21353
      vertex 21 18.4271 6.21353
    endloop
  endfacet
  facet normal -0.0979408 0.293822 0.950829
    outer loop
      vertex 21 18.4271 6.21353
      vertex 18.2188 17.5 6.21353
      vertex 21 17.5 6.5
    endloop
  endfacet
  facet normal -0.0979408 -0.293823 0.950829
    outer loop
      vertex 21 17.5 6.5
      vertex 18.2188 17.5 6.21353
      vertex 18.2188 16.75 5.98176
    endloop
  endfacet
  facet normal -0.0979409 -0.293822 0.950829
    outer loop
      vertex 21 17.5 6.5
      vertex 18.2188 16.75 5.98176
      vertex 21 16.5729 6.21353
    endloop
  endfacet
  facet normal 0.0979408 -0.293822 0.950829
    outer loop
      vertex 23.7812 17.5 6.21353
      vertex 21 17.5 6.5
      vertex 21 16.5729 6.21353
    endloop
  endfacet
  facet normal 0.0979409 -0.293823 0.950829
    outer loop
      vertex 23.7812 17.5 6.21353
      vertex 21 16.5729 6.21353
      vertex 23.7812 16.75 5.98176
    endloop
  endfacet
  facet normal 0.0979408 0.293823 0.950829
    outer loop
      vertex 23.7812 18.25 5.98176
      vertex 21 17.5 6.5
      vertex 23.7812 17.5 6.21353
    endloop
  endfacet
  facet normal 0.0979409 0.293822 0.950829
    outer loop
      vertex 21 18.4271 6.21353
      vertex 21 17.5 6.5
      vertex 23.7812 18.25 5.98176
    endloop
  endfacet
  facet normal 0 0 1
    outer loop
      vertex 26.625 17.7725 6.42658
      vertex 26.5365 17.5 6.42658
      vertex 26.625 17.2275 6.42658
    endloop
  endfacet
  facet normal 0 0 1
    outer loop
      vertex 27.1432 17.0592 6.42658
      vertex 26.625 17.7725 6.42658
      vertex 26.8568 17.0592 6.42658
    endloop
  endfacet
  facet normal 0 0 1
    outer loop
      vertex 26.8568 17.0592 6.42658
      vertex 26.625 17.7725 6.42658
      vertex 26.625 17.2275 6.42658
    endloop
  endfacet
  facet normal 0 0 1
    outer loop
      vertex 27.375 17.2275 6.42658
      vertex 26.625 17.7725 6.42658
      vertex 27.1432 17.0592 6.42658
    endloop
  endfacet
  facet normal 0 0 1
    outer loop
      vertex 27.4635 17.5 6.42658
      vertex 26.625 17.7725 6.42658
      vertex 27.375 17.2275 6.42658
    endloop
  endfacet
  facet normal 0 0 1
    outer loop
      vertex 27.375 17.7725 6.42658
      vertex 26.625 17.7725 6.42658
      vertex 27.4635 17.5 6.42658
    endloop
  endfacet
  facet normal 0 0 1
    outer loop
      vertex 27.1432 17.9408 6.42658
      vertex 26.625 17.7725 6.42658
      vertex 27.375 17.7725 6.42658
    endloop
  endfacet
  facet normal 0 0 1
    outer loop
      vertex 26.8568 17.9408 6.42658
      vertex 26.625 17.7725 6.42658
      vertex 27.1432 17.9408 6.42658
    endloop
  endfacet
  facet normal 0.356822 -0.491123 0.794655
    outer loop
      vertex 27.375 17.2275 6.42658
      vertex 27.1432 17.0592 6.42658
      vertex 27.75 16.862 6.03229
    endloop
  endfacet
  facet normal 0.356822 -0.491123 0.794655
    outer loop
      vertex 27.75 16.9551 6.08981
      vertex 27.375 17.2275 6.42658
      vertex 27.75 16.862 6.03229
    endloop
  endfacet
  facet normal 0.57735 -0.187592 0.794654
    outer loop
      vertex 27.75 17.3494 6.1829
      vertex 27.375 17.2275 6.42658
      vertex 27.75 16.9551 6.08981
    endloop
  endfacet
  facet normal 0.57735 -0.187592 0.794654
    outer loop
      vertex 27.75 17.1057 6.12537
      vertex 27.75 17.3494 6.1829
      vertex 27.75 16.9551 6.08981
    endloop
  endfacet
  facet normal 0.57735 -0.187592 0.794655
    outer loop
      vertex 27.4635 17.5 6.42658
      vertex 27.375 17.2275 6.42658
      vertex 27.75 17.3494 6.1829
    endloop
  endfacet
  facet normal 0.57735 -0.187592 0.794655
    outer loop
      vertex 27.75 17.5 6.21845
      vertex 27.4635 17.5 6.42658
      vertex 27.75 17.3494 6.1829
    endloop
  endfacet
  facet normal 0.57735 0.187592 0.794654
    outer loop
      vertex 27.75 17.6506 6.1829
      vertex 27.4635 17.5 6.42658
      vertex 27.75 17.5 6.21845
    endloop
  endfacet
  facet normal 0.57735 0.187592 0.794654
    outer loop
      vertex 27.75 17.8943 6.12537
      vertex 27.4635 17.5 6.42658
      vertex 27.75 17.6506 6.1829
    endloop
  endfacet
  facet normal 0.577351 0.187592 0.794654
    outer loop
      vertex 27.75 18.0449 6.08981
      vertex 27.375 17.7725 6.42658
      vertex 27.4635 17.5 6.42658
    endloop
  endfacet
  facet normal 0.577351 0.187592 0.794654
    outer loop
      vertex 27.75 17.8943 6.12537
      vertex 27.75 18.0449 6.08981
      vertex 27.4635 17.5 6.42658
    endloop
  endfacet
  facet normal -0.0979409 0.293823 0.950829
    outer loop
      vertex 33.2188 16.75 5.98176
      vertex 33.2188 16 6.21353
      vertex 36 16.9271 6.21353
    endloop
  endfacet
  facet normal -0.0979408 0.293822 0.950829
    outer loop
      vertex 36 16.9271 6.21353
      vertex 33.2188 16 6.21353
      vertex 36 16 6.5
    endloop
  endfacet
  facet normal -0.0979408 -0.293823 0.950829
    outer loop
      vertex 36 16 6.5
      vertex 33.2188 16 6.21353
      vertex 33.2188 15.25 5.98176
    endloop
  endfacet
  facet normal -0.0979409 -0.293822 0.950829
    outer loop
      vertex 36 16 6.5
      vertex 33.2188 15.25 5.98176
      vertex 36 15.0729 6.21353
    endloop
  endfacet
  facet normal 0.0979408 -0.293822 0.950829
    outer loop
      vertex 38.7812 16 6.21353
      vertex 36 16 6.5
      vertex 36 15.0729 6.21353
    endloop
  endfacet
  facet normal 0.0979409 -0.293823 0.950829
    outer loop
      vertex 38.7812 16 6.21353
      vertex 36 15.0729 6.21353
      vertex 38.7812 15.25 5.98176
    endloop
  endfacet
  facet normal 0.0979408 0.293823 0.950829
    outer loop
      vertex 38.7812 16.75 5.98176
      vertex 36 16 6.5
      vertex 38.7812 16 6.21353
    endloop
  endfacet
  facet normal 0.0979409 0.293822 0.950829
    outer loop
      vertex 36 16.9271 6.21353
      vertex 36 16 6.5
      vertex 38.7812 16.75 5.98176
    endloop
  endfacet
  facet normal -0.0979409 0.293823 0.950829
    outer loop
      vertex 39.2188 24.25 5.98176
      vertex 39.2188 23.5 6.21353
      vertex 42 24.4271 6.21353
    endloop
  endfacet
  facet normal -0.0979408 0.293822 0.950829
    outer loop
      vertex 42 24.4271 6.21353
      vertex 39.2188 23.5 6.21353
      vertex 42 23.5 6.5
    endloop
  endfacet
  facet normal -0.0979408 -0.293823 0.950829
    outer loop
      vertex 42 23.5 6.5
      vertex 39.2188 23.5 6.21353
      vertex 39.2188 22.75 5.98176
    endloop
  endfacet
  facet normal -0.0979409 -0.293822 0.950829
    outer loop
      vertex 42 23.5 6.5
      vertex 39.2188 22.75 5.98176
      vertex 42 22.5729 6.21353
    endloop
  endfacet
  facet normal 0.0979408 -0.293822 0.950829
    outer loop
      vertex 44.7812 23.5 6.21353
      vertex 42 23.5 6.5
      vertex 42 22.5729 6.21353
    endloop
  endfacet
  facet normal 0.0979409 -0.293823 0.950829
    outer loop
      vertex 44.7812 23.5 6.21353
      vertex 42 22.5729 6.21353
      vertex 44.7812 22.75 5.98176
    endloop
  endfacet
  facet normal 0.0979408 0.293823 0.950829
    outer loop
      vertex 44.7812 24.25 5.98176
      vertex 42 23.5 6.5
      vertex 44.7812 23.5 6.21353
    endloop
  endfacet
  facet normal 0.0979409 0.293822 0.950829
    outer loop
      vertex 42 24.4271 6.21353
      vertex 42 23.5 6.5
      vertex 44.7812 24.25 5.98176
    endloop
  endfacet
  facet normal 0 0 1
    outer loop
      vertex 41.625 16.2725 6.42658
      vertex 41.5365 16 6.42658
      vertex 41.625 15.7275 6.42658
    endloop
  endfacet
  facet normal 0 0 1
    outer loop
      vertex 42.1432 15.5592 6.42658
      vertex 41.625 16.2725 6.42658
      vertex 41.8568 15.5592 6.42658
    endloop
  endfacet
  facet normal 0 0 1
    outer loop
      vertex 41.8568 15.5592 6.42658
      vertex 41.625 16.2725 6.42658
      vertex 41.625 15.7275 6.42658
    endloop
  endfacet
  facet normal 0 0 1
    outer loop
      vertex 42.375 15.7275 6.42658
      vertex 41.625 16.2725 6.42658
      vertex 42.1432 15.5592 6.42658
    endloop
  endfacet
  facet normal 0 0 1
    outer loop
      vertex 42.4635 16 6.42658
      vertex 41.625 16.2725 6.42658
      vertex 42.375 15.7275 6.42658
    endloop
  endfacet
  facet normal 0 0 1
    outer loop
      vertex 42.375 16.2725 6.42658
      vertex 41.625 16.2725 6.42658
      vertex 42.4635 16 6.42658
    endloop
  endfacet
  facet normal 0 0 1
    outer loop
      vertex 42.1432 16.4408 6.42658
      vertex 41.625 16.2725 6.42658
      vertex 42.375 16.2725 6.42658
    endloop
  endfacet
  facet normal 0 0 1
    outer loop
      vertex 41.8568 16.4408 6.42658
      vertex 41.625 16.2725 6.42658
      vertex 42.1432 16.4408 6.42658
    endloop
  endfacet
  facet normal 0.356822 -0.491123 0.794655
    outer loop
      vertex 42.375 15.7275 6.42658
      vertex 42.1432 15.5592 6.42658
      vertex 42.75 15.362 6.03229
    endloop
  endfacet
  facet normal 0.356822 -0.491123 0.794655
    outer loop
      vertex 42.75 15.4551 6.08981
      vertex 42.375 15.7275 6.42658
      vertex 42.75 15.362 6.03229
    endloop
  endfacet
  facet normal 0.57735 -0.187592 0.794654
    outer loop
      vertex 42.75 15.8494 6.1829
      vertex 42.375 15.7275 6.42658
      vertex 42.75 15.4551 6.08981
    endloop
  endfacet
  facet normal 0.57735 -0.187592 0.794654
    outer loop
      vertex 42.75 15.6057 6.12537
      vertex 42.75 15.8494 6.1829
      vertex 42.75 15.4551 6.08981
    endloop
  endfacet
  facet normal 0.57735 -0.187592 0.794655
    outer loop
      vertex 42.4635 16 6.42658
      vertex 42.375 15.7275 6.42658
      vertex 42.75 15.8494 6.1829
    endloop
  endfacet
  facet normal 0.57735 -0.187592 0.794655
    outer loop
      vertex 42.75 16 6.21845
      vertex 42.4635 16 6.42658
      vertex 42.75 15.8494 6.1829
    endloop
  endfacet
  facet normal 0.57735 0.187592 0.794654
    outer loop
      vertex 42.75 16.1506 6.1829
      vertex 42.4635 16 6.42658
      vertex 42.75 16 6.21845
    endloop
  endfacet
  facet normal 0.57735 0.187592 0.794654
    outer loop
      vertex 42.75 16.3943 6.12537
      vertex 42.4635 16 6.42658
      vertex 42.75 16.1506 6.1829
    endloop
  endfacet
  facet normal 0.577351 0.187592 0.794654
    outer loop
      vertex 42.75 16.5449 6.08981
      vertex 42.375 16.2725 6.42658
      vertex 42.4635 16 6.42658
    endloop
  endfacet
  facet normal 0.577351 0.187592 0.794654
    outer loop
      vertex 42.75 16.3943 6.12537
      vertex 42.75 16.5449 6.08981
      vertex 42.4635 16 6.42658
    endloop
  endfacet
  facet normal 0 0 1
    outer loop
      vertex 47.625 23.7725 6.42658
      vertex 47.5365 23.5 6.42658
      vertex 47.625 23.2275 6.42658
    endloop
  endfacet
  facet normal 0 0 1
    outer loop
      vertex 48.1432 23.0592 6.42658
      vertex 47.625 23.7725 6.42658
      vertex 47.8568 23.0592 6.42658
    endloop
  endfacet
  facet normal 0 0 1
    outer loop
      vertex 47.8568 23.0592 6.42658
      vertex 47.625 23.7725 6.42658
      vertex 47.625 23.2275 6.42658
    endloop
  endfacet
  facet normal 0 0 1
    outer loop
      vertex 48.375 23.2275 6.42658
      vertex 47.625 23.7725 6.42658
      vertex 48.1432 23.0592 6.42658
    endloop
  endfacet
  facet normal 0 0 1
    outer loop
      vertex 48.4635 23.5 6.42658
      vertex 47.625 23.7725 6.42658
      vertex 48.375 23.2275 6.42658
    endloop
  endfacet
  facet normal 0 0 1
    outer loop
      vertex 48.375 23.7725 6.42658
      vertex 47.625 23.7725 6.42658
      vertex 48.4635 23.5 6.42658
    endloop
  endfacet
  facet normal 0 0 1
    outer loop
      vertex 48.1432 23.9408 6.42658
      vertex 47.625 23.7725 6.42658
      vertex 48.375 23.7725 6.42658
    endloop
  endfacet
  facet normal 0 0 1
    outer loop
      vertex 47.8568 23.9408 6.42658
      vertex 47.625 23.7725 6.42658
      vertex 48.1432 23.9408 6.42658
    endloop
  endfacet
  facet normal 0.356822 -0.491123 0.794655
    outer loop
      vertex 48.375 23.2275 6.42658
      vertex 48.1432 23.0592 6.42658
      vertex 48.75 22.862 6.03229
    endloop
  endfacet
  facet normal 0.356822 -0.491123 0.794655
    outer loop
      vertex 48.75 22.9551 6.08981
      vertex 48.375 23.2275 6.42658
      vertex 48.75 22.862 6.03229
    endloop
  endfacet
  facet normal 0.57735 -0.187592 0.794654
    outer loop
      vertex 48.75 23.3494 6.1829
      vertex 48.375 23.2275 6.42658
      vertex 48.75 22.9551 6.08981
    endloop
  endfacet
  facet normal 0.57735 -0.187592 0.794654
    outer loop
      vertex 48.75 23.1057 6.12537
      vertex 48.75 23.3494 6.1829
      vertex 48.75 22.9551 6.08981
    endloop
  endfacet
  facet normal 0.57735 -0.187592 0.794655
    outer loop
      vertex 48.4635 23.5 6.42658
      vertex 48.375 23.2275 6.42658
      vertex 48.75 23.3494 6.1829
    endloop
  endfacet
  facet normal 0.57735 -0.187592 0.794655
    outer loop
      vertex 48.75 23.5 6.21845
      vertex 48.4635 23.5 6.42658
      vertex 48.75 23.3494 6.1829
    endloop
  endfacet
  facet normal 0.57735 0.187592 0.794654
    outer loop
      vertex 48.75 23.6506 6.1829
      vertex 48.4635 23.5 6.42658
      vertex 48.75 23.5 6.21845
    endloop
  endfacet
  facet normal 0.57735 0.187592 0.794654
    outer loop
      vertex 48.75 23.8943 6.12537
      vertex 48.4635 23.5 6.42658
      vertex 48.75 23.6506 6.1829
    endloop
  endfacet
  facet normal 0.577351 0.187592 0.794654
    outer loop
      vertex 48.75 24.0449 6.08981
      vertex 48.375 23.7725 6.42658
      vertex 48.4635 23.5 6.42658
    endloop
  endfacet
  facet normal 0.577351 0.187592 0.794654
    outer loop
      vertex 48.75 23.8943 6.12537
      vertex 48.75 24.0449 6.08981
      vertex 48.4635 23.5 6.42658
    endloop
  endfacet
endsolid OpenSCAD_Model
